/* XPM */
static char *blue_space1674071355[] = {
/* columns rows colors chars-per-pixel */
"64 64 95 2 ",
"   c #0A010E",
".  c #0D0214",
"X  c #0E0817",
"o  c #0E0619",
"O  c #0E0A1C",
"+  c #110216",
"@  c #160816",
"#  c #12041B",
"$  c #19011D",
"%  c #110A1E",
"&  c #190D1C",
"*  c #25161E",
"=  c #0F0D21",
"-  c #160621",
";  c #1A0622",
":  c #130C23",
">  c #1A0926",
",  c #160F28",
"<  c #1A0D2B",
"1  c #0F1023",
"2  c #121125",
"3  c #1A1423",
"4  c #1F1925",
"5  c #14132B",
"6  c #19122D",
"7  c #13182E",
"8  c #1D192B",
"9  c #1E0F31",
"0  c #171631",
"q  c #1B1533",
"w  c #161B34",
"e  c #191A36",
"r  c #1F1639",
"t  c #171F38",
"y  c #1B1C3B",
"u  c #211623",
"i  c #241C24",
"p  c #2E1F23",
"a  c #201336",
"s  c #211538",
"d  c #201A3C",
"f  c #17213A",
"g  c #1A213E",
"h  c #27212E",
"j  c #2B242D",
"k  c #2E282D",
"l  c #252333",
"z  c #2B2B3E",
"x  c #1E1F41",
"c  c #221E42",
"v  c #1C2443",
"b  c #1C2946",
"n  c #1E2648",
"m  c #1D2B4B",
"M  c #1D304F",
"N  c #1F2F50",
"B  c #1F3253",
"V  c #212344",
"C  c #262D44",
"Z  c #292F44",
"A  c #21264A",
"S  c #212B4D",
"D  c #2D3246",
"F  c #24324C",
"G  c #383D4E",
"H  c #252653",
"J  c #222E52",
"K  c #213255",
"L  c #2C3955",
"P  c #23355A",
"I  c #22395D",
"U  c #2B3D5C",
"Y  c #323C52",
"T  c #273660",
"R  c #2B3462",
"E  c #253C63",
"W  c #283B65",
"Q  c #293F6A",
"!  c #373871",
"~  c #394454",
"^  c #3B495F",
"/  c #2E4363",
"(  c #26426B",
")  c #28436D",
"_  c #324964",
"`  c #394D62",
"'  c #324B6D",
"]  c #3E5164",
"[  c #2B4673",
"{  c #274872",
"}  c #2A4974",
"|  c #475E72",
" . c #4A5E70",
".. c #395794",
"X. c #415792",
/* pixels */
"X.K m y b x 0 0 e q 0 5 = 5 w w 1 O =           . . . . o # - w v x w y y w t x v n b m N N B ( B N B N B m m N ) ( B B m m I { ",
"E S m J m w 0 5 0 0 y t w t w 0 1 = o   .   . . o o o o o = 0 N B m m m v x f v N K N B B B B m b b m v x v n m B B m w w b B I ",
"B N m I t 2 w w e y w 5 5 , 0 1   X   X O o o . o o - . o = t B I B I E B N M b N K N B E P m v g 0 w y n w t N b b v = = 1 w b ",
"m m K K t 7 t w y w 5 = o = 1 = X         O o . . = o o = 5 x M E E ( ( Q I I B K B P P B b y w 5 : o o o , e t v b 7 = . . = w ",
"b N m b f 7 f t w ! = O o O = o X     X o O = O = o o - o 0 x b E [ ) E I N N B K K K J x e 5 , # # o + . - - 0 v x w O o . . 7 ",
"w w g g f f f 1 1 r = = O   . O       X . o : : : : = = 1 0 v N ( [ Q E B N P P S N n n x e 5 , # + $ # + o o 5 w w w . . . O 2 ",
"o = 7 t f t 2 . . o 1 = X   X X X   . . X O = = 5 5 : , 0 w m Q { ) Q T J P H n y y x e , # + > ; $ - + # + - < 5 0 1 o .   O O ",
". . O 7 t 7 O . o o = =       X X . X o = = = 5 5 w 0 0 e x B { } Q J J H n x x y q 0 , # + o # - - $ - $ + - # , o X   . O 1 o ",
"X     O o : # . o o O = o o o = 1 X   X = 1 2 5 w y b y w b E W T P c H A e e r < : - : : # - - - - - $ # $ # > - o . . O 1 7 = ",
"        . . . . o - - : o o o = = O X X = = = 5 t g v v v m E W J A y A x r q q , - - # - > - - - - - # # + + - - o o . o o 5 5 ",
"O       . . . o o # # # o o O O O = X o = 7 7 w g b N m m B ..Q P V q y x r 9 , < # - , , , < ; - - # # - # + + o # o .   X . 1 ",
"7 7     . . . o # # o o o o O = O 2 1 1 = 7 t y v m K N I I W P A x r s r q , - < $ - < : < e , - - # - - # + + o . o .         ",
"O 5     . . . o @ u 3 o o o o : : = 1 1 7 7 w t t t m N E m K R H q q s 9 9 < > > - < < 5 q y < , 9 - o # # # + . . . . . .     ",
"  . . X . . . o . % j 3 o # o = = O 2 : 2 7 1 5 2 2 5 w g g n P y < < > 9 , 9 9 < < < e y y x y 0 6 > , - : # o .   . . . . .   ",
". . X = .   . . . o O 3 : : : = : 5 1 1 2 1 2 2 : = o : 7 w b J V d 9 < < < , < < < q x x x x v v r 0 , : - @ + . . . . . . . . ",
"@ . . X .       . % & 3 , O : = = 7 w 7 5 2 : % O o o o , t y K A y d 9 9 9 < < - e c A n v n S m x w , : , 6 % +   . . . . .   ",
"o   .   o .   . . O % 3 3 2 2 : 1 2 7 7 = 2 : O O # o . 2 5 e C S y d d a 6 < < 6 d S S m S J A n n x y 5 5 5 # : : . . . .   . ",
". . . . . o . . o O O 3 3 2 5 1 1 2 1 5 2 O O . # . . # - 5 0 0 V d s d q 6 > 6 q q A J S J m V v n y t q < , , , e : . . . o # ",
"2 : O . . . . X % o O : 3 8 3 2 2 2 2 : o . . . # # + . : 5 0 2 0 e 6 s a a < < a y H K K n g y x y e 0 e 5 6 6 , 0 e : % = O 2 ",
"y 2 o   . o   . o # o : 8 h % o X o : # .   # . . # + . % 5 e 0 y q q d q a a d c A I E J y 0 e e 0 0 0 e e 0 5 : 5 t , 5 5 7 l ",
"w o   . . .   + + + # # & u + . .   . +   + + + o # . . + : e V e q d d 3 > s c A P R W A y y e 5 0 e 0 e y w 0 5 w w 2 5 7 C C ",
"w % . +   .   . . + + . & p @ + + + + . + + + + o # o . . # e e q q < a ; $ > d c J P P P R v e e w y 0 0 e y t y g w 7 7 w F F ",
"v 5 .   . + + + + . + + @ * @ + + + @ + + + + # # , 5 # : + e e d a 9 a > ; > 6 a J R P P A t e 0 5 , % 3 0 0 y b f 7 5 2 2 b / ",
"m 5 o +     + # - + . + + + + + + + + + # + # % o : , : , 0 r c q 9 ; > a < > > 6 A W J y 5 5 5 o : o : 3 u 0 v v w 5 7 7 f b / ",
"` v : o o   . # - # # # o . + + . + + + + + % % . - 5 5 8 y x c a > $ # $ 9 a a y A J y q - : : o o % # % 2 5 e e 5 7 w t t b ` ",
"| F 7 : % # # : # + . # # . . . . + + . + : 5 - % 5 y v v v q q 6 # @ @ $ 9 > q d v A y , % # # o . # o # % 2 : 2 5 5 5 w f M / ",
"I C 7 , % # % # # # # # # o o o : , - 2 0 g y 5 w y v I S y e d q $ # $ $ ; > 6 V y x y : # o . . + # o # % O O : 2 2 2 7 g M I ",
"( U Z l : 3 & o o # o # o = , e y g y v n v f f y y g K v y x e < % $ $ $ > q d 0 , 0 q : , % . o # + o % , o & 2 % % O 2 w M I ",
"( | G l j k & o - o o . . = = y m g g f b M I K m B N J v ~ D 5 5 < - # > < d c < = .   . , , o . + . # : % + % 4 4 % % 1 w b I ",
"' ^ g 8 8 : O o o o o o = = 7 v m B b M M B E ( E ) ( P B Y G f 6 6 y y 5 6 q 0 < # . . . = 5 5 o   o : %   + o % k 3 O O 5 g B ",
"U v 5 5 2 % % % = - , 2 5 w b K I I ( B ( } ( K E ( ( E m v C V v V V c y e 6 < + + + . . : : 5 : O : 2 .   . . o i : # = : y L ",
"z 5 5 5 5 5 0 5 e 0 w t t b P ( ( I B E I I K I E } } B m b P I [ P v y c V 5 6 < , , : o O : 5 7 2 2 O         . . o o + # : l ",
"b y w y t t y y v b b N B B B E B B B B B m m N ( ( B M m N E { X.K m y m y 0 0 e q 0 0 = 2 w e 1 = =             . o . o o - , ",
"B N m m v g g b N B N B B E B b v v m v x v v m B I M w w b B B I S m K m 0 0 5 0 0 e x w t w w 1 : o . .   . O o o o o o = 0 N ",
"E B I I N N m n N K B B E B n v g w w y n t t N v m v = = 2 t b K J m I f 5 e 0 w t e 0 5 2 7 1 .     . . o o o . o o o o = y N ",
"E E ( ( ( T E K K K B P N b y e 5 % o O - : e t v b 7 = . . X w m m K B f 7 e t y t 2 = O = 1 = X     . . o o . o = o o = 5 x N ",
"E [ { E P K B K K K K J v y 5 , # + + + o - - 0 v x w . o .   7 b N m b f 7 f t w ! = o X O O X .     X X o = - o o # o = 0 x b ",
"( ( Q E J J K K N m H x y y 5 , # # # $ # + . < 7 w t . X X O 5 w t f f f g f 1 = y : = O   X O         X o 1 1 , = - = , 5 b N ",
"[ ) W T J J J n x y x e < o + - - - - $ o + - , 5 7 5 .     O O o O 5 f t t 5     O 1 1 .   . X X   X X o o 1 1 5 5 = , 0 w b E ",
"} Q J J J n x x y 0 0 , # + # # - - - # o o - - , O .   X O 1   . . O 5 w w O . o o O = . . . X X X X X = = 1 1 5 t 0 0 t x P { ",
"W P c A A y e e , - - - : - - - - - - # # # $ > - o . . O 2 7 = X     X O = o . o # o : o o o O 1 X . X O 2 1 2 w y v t t b E E ",
"H A y V V r q q , - - # - : - # $ - - # # + + # - + . . O o 5 5             . o o # % : o o O O 1 O . X = 1 2 5 w v v v v m I E ",
"P A q y d q 9 , < - - , , , < > - - o o - $ + # # + @ . . . . 1 O X     . . o . # # # o o O O O O O O X : 7 5 w f m N m N B ..Q ",
"A c s r r q < ; , - - < : 6 e > - > - - - # + + + . + . .       1 1 X   . . o o % # o # o o % O O 1 1 : O 7 f f v m N N E P E T ",
"H 0 9 r q < 9 > > - < < < q y < , < - # o # o o   +   + +   .   1 5 .   . . o . # u 3 # . X O : = = = 1 7 7 w t t y v N T m P T ",
"x < 9 > 9 < < 9 < > < q y e x y e < , > - - # o . . +   . +     . . X . . . o o o % j 3 o % % % 1 = 2 1 5 5 1 5 5 5 5 w g g b J ",
"v r q > < < < < < < q x n x v v x w 0 , : - - o . . . . + . +   X . . O     . . . o % 3 : : % O = 2 2 1 1 1 2 2 = O o : 5 t v N ",
"A y r 9 9 q < , > e x A n v n H n n t , : , 0 o . . . +   +     X . . X .       . % & 3 2 % % 2 = 7 w w 5 2 : O % O o o : t x K ",
"A r c r q < < < q d S S S S J m v m x y 5 5 5 - = = o . . .   . + . +   X .   . . O & u 3 2 2 2 2 5 7 7 O 2 : % % # o . 2 5 0 A ",
"x x r r q 6 > 6 q q A S H S S v n v y w q 5 , : , e : . . . o X   . .   . X . . X X O 2 3 3 2 2 1 2 1 5 : O O . # . # # - 5 7 w ",
"e r q d s a > < a e H K K A g g y x 0 e e < 0 5 , 5 0 : O = O 1 3 : O o . . + . O o O : 6 8 2 2 : 2 1 : . . . . o # . + : 8 7 2 ",
"e q q d q a s d c A I W S y q e e e 8 0 e e 0 < , 5 y 5 5 5 5 z y 2 . .   o   + o o % % 8 h # # o o : O . . # . . % +   % 6 e 0 ",
"e q d d < ; s V H P T W m y y e 5 0 e 0 e y e 0 5 w w 2 5 w z b w O   . +   . . . + # o & u + + .   . . . + + . o # . . . , e v ",
"q q 9 9 ; $ > d c J P I P U x e 0 y y 0 7 e y w t y 0 7 7 7 F M w O . . .     + . + + + @ p @ + . + + + + + + . # # + . . + q e ",
"c 9 9 s < ; > < a S I P P S y y 5 5 2 : 3 8 0 g b y 0 5 5 5 b / b 5 . . + + + . . + + + # * # + + + + + + + + # % , , % : # 0 r ",
"r < ; > q > < > 6 A W H y 5 5 5 % % % - 5 u 0 g v w 7 7 5 w b _ m 5 . .   . . # - + . + @ # + + + + + + + @ # - o : 5 % , 6 y c ",
"q ; $ $ ; 9 q a s A K x q : : : o o # O % : 5 0 w 5 7 w t t b ] ` y 5 o o . . - - - o + o o . + + + + + + + : o . : 5 5 5 y d c ",
"6 $ + # $ 9 > q d v A r : # + o o # # o # % 5 = 5 2 5 w t f N '  .K 5 = # o o : # + o + + . . . . + + . . : 5 : : 5 y n n x e q ",
"6 & @ $ $ ; > q V e V y : - # . . . + o % : % O = : 2 1 2 g B B I F 7 5 % o # % o # # # # # o o : , : 5 0 y y 7 0 y v P m y q y ",
"< - $ $ $ ; q y 0 5 0 8 : : : . o # # # # : X & 2 O O O 1 t m ( ( U D i : 3 & # o - o # + : , 0 y y y v v v g g y t g K v y x q ",
"6 , - @ , < y c 6 - +   . : < o o o . o : # + % 8 u % % : 0 b B '  .G l h j : # # o + o . X 5 g m v g t b B P B m B F S n ~ D 5 ",
"0 6 y y < q q q , # . . . : 5 5 . . . : % . + . % k 3 O = 7 g B ' ^ g 5 8 & O o o o o . O 1 7 b b B b b m B Q E E ) ) P N Y G y ",
"v v V V y q < , + + + o . = = 5 : o : 2 .   . . . i 3 O o , e L U v 8 5 , O % O o : 5 2 7 t b B I E E B E { E P E ( ( I M g Z A ",
"[ P x y v v < 5 < , , : o = = 0 7 2 2 O         + . . o # # : z D 5 5 5 5 5 w 5 w 7 t t f b B ( { E B E E E B I E } { P m n K I "
};
