/* XPM */
static char *_8d72454bfef4b2593d9c93779f8be5bJwfD66rSrDmJtNEn[] = {
/* columns rows colors chars-per-pixel */
"64 64 253 2 ",
"   c #7D691E",
".  c #5C5F6E",
"X  c #6C7D7D",
"o  c #A24613",
"O  c #986B0F",
"+  c #AF552D",
"@  c #A95837",
"#  c #9F6029",
"$  c #986C2D",
"%  c #977839",
"&  c #B76E34",
"*  c #A9783C",
"=  c #B7753A",
"-  c #C5770A",
";  c #D05233",
":  c #D7573A",
">  c #E65A37",
",  c #C4733B",
"<  c #FA6F34",
"1  c #A95C47",
"2  c #B35B4A",
"3  c #916E4B",
"4  c #AC664A",
"5  c #B6674A",
"6  c #AE764A",
"7  c #B87847",
"8  c #AD6654",
"9  c #B66754",
"0  c #B36B54",
"q  c #AB7451",
"w  c #B67358",
"e  c #905677",
"r  c #A8587E",
"t  c #8D6C6E",
"y  c #AE7067",
"u  c #CA5C46",
"i  c #D45A44",
"p  c #D95C44",
"a  c #E15E48",
"s  c #C9684A",
"d  c #DC634B",
"f  c #DA6748",
"g  c #C77545",
"h  c #D8764B",
"j  c #D86B54",
"k  c #C67454",
"l  c #E3654D",
"z  c #E4694E",
"x  c #E86848",
"c  c #F26C4D",
"v  c #E2774C",
"b  c #E86552",
"n  c #E56C51",
"m  c #EA6B52",
"M  c #E87756",
"N  c #D37167",
"B  c #7E917A",
"V  c #8B8702",
"C  c #999309",
"Z  c #A6990E",
"A  c #AAA110",
"S  c #898A2E",
"D  c #94952F",
"F  c #8D8A33",
"G  c #988637",
"H  c #9C9436",
"J  c #979836",
"K  c #9E9C39",
"L  c #B28D29",
"P  c #A59924",
"I  c #A9883A",
"U  c #B58A3C",
"Y  c #A3953B",
"T  c #A79B39",
"R  c #A29C3A",
"E  c #B3993C",
"W  c #9CA138",
"Q  c #A5A137",
"!  c #B9A63F",
"~  c #CE9119",
"^  c #D7A127",
"/  c #CAA536",
"(  c #E9B028",
")  c #F4B73A",
"_  c #929650",
"`  c #A98845",
"'  c #B68543",
"]  c #A39842",
"[  c #BB9B44",
"{  c #AEA64D",
"}  c #8A8F6D",
"|  c #B69270",
" . c #A5A878",
".. c #C98749",
"X. c #D58846",
"o. c #C59446",
"O. c #D4954C",
"+. c #C98854",
"@. c #D99855",
"#. c #E2844B",
"$. c #EA9252",
"%. c #C6A646",
"&. c #D8A547",
"*. c #D6AD4C",
"=. c #DDBD56",
"-. c #E2A84A",
";. c #E8B44B",
":. c #F5B34A",
">. c #EBA855",
",. c #E9B857",
"<. c #F4BA57",
"1. c #E9917D",
"2. c #D3B276",
"3. c #FBC64C",
"4. c #FFD247",
"5. c #EBC459",
"6. c #F7C657",
"7. c #F5C45D",
"8. c #FAC65D",
"9. c #FCCB5D",
"0. c #FFD359",
"q. c #F6C661",
"w. c #FDCB62",
"e. c #FFD261",
"r. c #F4C776",
"t. c #0C50BD",
"y. c #3079A9",
"u. c #4D4C92",
"i. c #755793",
"p. c #4C7A97",
"a. c #696E96",
"s. c #4C4DAF",
"d. c #5478B1",
"f. c #7975A8",
"g. c #0014DF",
"h. c #0227DF",
"j. c #022EDE",
"k. c #0334DE",
"l. c #013BDB",
"z. c #2B38DA",
"x. c #0000E1",
"c. c #0013E1",
"v. c #001AE2",
"b. c #0025E1",
"n. c #002DE1",
"m. c #052CE7",
"M. c #0136E2",
"N. c #023AE3",
"B. c #0E3FE3",
"V. c #003CEB",
"C. c #1A37E1",
"Z. c #003DFA",
"A. c #1D45C8",
"S. c #3456CB",
"D. c #0567DA",
"F. c #1672D2",
"G. c #266ED4",
"H. c #0443E6",
"J. c #0B46E5",
"K. c #0449E7",
"L. c #0345EA",
"P. c #044AEA",
"I. c #0153EB",
"U. c #0258E8",
"Y. c #1452EC",
"T. c #0149F6",
"R. c #0254F5",
"E. c #0258F9",
"W. c #015CFD",
"Q. c #2944E1",
"!. c #3057EE",
"~. c #0261F0",
"^. c #046CF4",
"/. c #0164FF",
"(. c #026AFC",
"). c #186FF1",
"_. c #0576FA",
"`. c #3667E9",
"'. c #2F70F4",
"]. c #6845C7",
"[. c #4A6DD2",
"{. c #496DEA",
"}. c #4F75EC",
"|. c #90698C",
" X c #9A6B8F",
".X c #779A9E",
"XX c #4996B8",
"oX c #3193D3",
"OX c #2BA3D2",
"+X c #0588F9",
"@X c #0399FC",
"#X c #2F87F0",
"$X c #08A5FB",
"%X c #7EAACB",
"&X c #598CF4",
"*X c #5895FB",
"=X c #7389E9",
"-X c #6898E0",
";X c #7895ED",
":X c #668EF1",
">X c #75ACF3",
",X c #958F87",
"<X c #B39A93",
"1X c #BAAD94",
"2X c #9789A4",
"3X c #9296B7",
"4X c #CC998B",
"5X c #CFAA93",
"6X c #E6B981",
"7X c #EBA496",
"8X c #D4B3A8",
"9X c #D6B5AA",
"0X c #EBB7AE",
"qX c #B7C6A8",
"wX c #CAC496",
"eX c #F1D193",
"rX c #DEC5BD",
"tX c #D5D3B5",
"yX c #E9D7B0",
"uX c #8D8AC1",
"iX c #90AECB",
"pX c #879AEC",
"aX c #8CABF3",
"sX c #96ABF1",
"dX c #98B6F4",
"fX c #A9B2EE",
"gX c #A8B8F2",
"hX c #90CAF5",
"jX c #BBC7F6",
"kX c #ABD3F7",
"lX c #BCE2FF",
"zX c #D4D4D0",
"xX c #E3CDC7",
"cX c #EDCFC8",
"vX c #EADCD7",
"bX c #F3DAD4",
"nX c #EFE8D5",
"mX c #C3CDF5",
"MX c #CBD6F5",
"NX c #D2DBF3",
"BX c #C5E0F5",
"VX c #DAE4F9",
"CX c #EBE7E2",
"ZX c #F5E9E6",
"AX c #F5EEEB",
"SX c #F7F2E9",
"DX c #E4E9F9",
"FX c #EAF3FA",
"GX c #FAF5F3",
"HX c #FBF9F3",
"JX c #F3F6FC",
"KX c #F6F9FD",
"LX c #FFFFFF",
/* pixels */
"LXLXLXLXLXLXLXLXLXLXLXLXLXLXLXLXLXLXLXLXLXLXLXLXLXLXLXLXLXLXLXLXLXLXLXLXLXLXLXLXLXLXLXLXLXLXLXLXLXLXLXLXLXLXLXLXLXLXLXLXLXLXLXLX",
"LXLXLXLXLXLXLXLXLXLXLXLXLXLXLXLXLXLXLXLXLXLXLXLXLXLXLXLXLXLXLXHXLXLXLXLXLXHXLXLXLXLXLXLXLXLXLXLXLXLXLXLXLXLXLXLXLXLXLXLXLXLXLXLX",
"LXLXLXLXLXLXLXLXLXLXLXLXLXLXLXLXLXLXLXLXLXLXLXLXLXLXLXLXLXLXLXLXLXLXLXLXLXLXLXLXLXLXLXLXLXLXLXLXLXLXLXLXLXLXLXLXLXLXLXLXLXLXLXLX",
"LXLXLXLXLXLXLXLXLXLXLXLXLXLXLXLXLXLXLXLXLXLXLXLXLXLXLXLXLXLXZXZXLXLXLXGXZXZXLXLXLXLXLXLXLXLXLXLXLXLXLXLXLXLXLXLXLXLXLXLXLXLXLXLX",
"LXLXLXLXLXLXLXLXLXLXLXLXLXLXLXLXLXLXLXLXLXHXLXLXKXKXFXJXJXvX1.1.bXDXJXxX5X8XvXGXKXHXKXLXLXLXLXLXLXLXLXLXLXLXLXLXLXLXLXLXLXLXLXLX",
"LXLXLXLXLXLXLXLXLXLXLXLXLXLXLXLXLXLXLXLXLXHXnXnXkXhX>X>X>XN a a m iX%Xk 2 8 w zXlXVXJXLXLXLXLXLXLXLXLXLXLXLXLXLXLXLXLXLXLXLXLXLX",
"LXLXLXLXLXLXLXLXLXLXLXLXLXLXLXLXKXCXNXhXhXeXr.r.qXF.p.B B ' d M >.2.| 0 6 0 5 a.#X%X%XaX0X7X7X0XLXLXLXLXLXLXLXLXLXLXLXLXLXLXLXLX",
"LXLXLXLXLXLXLXLXLXLXKXLXLXSXCXzX8X5X<XXXXX( 6.3.5.,X_ P P D ..<.9.9.&.] Y Y * e 5X2.5X2Xj x l M xXFXLXLXLXLXLXLXLXLXLXLXLXLXLXLX",
"LXLXLXLXLXLXLXLXLXLXLXKXCXwXqX} + @ @ e a.) 7.7.0./ P T Q S [ e.w.,.o.` R W F &.4.3.4.^ : z z > | qXzXFXLXLXLXLXLXLXLXLXLXLXLXLX",
"LXLXLXLXLXLXLXLXKXLXFXBX_ C C # 5 0 w s y O.<.9.<.....E J % o.7.<.0 8 0 ` K % :.q.q.q.-.s j v m = V P iXVXFXLXLXLXLXLXLXLXLXLXLX",
"LXLXLXLXLXLXLXLXLXFX*XD.F Q R * 2 9 w 8 f n v ;.v b m h 6 0 9 O...8 w 9 0 I s M $.w.@.8 0 0 j d E K P . (.hXLXLXLXLXLXLXLXLXLXLX",
"LXLXLXLXLXLXLXLXBX&Xt.i.F K Q K 3 1 1 5 j n h E U g n m s 0 0 0 1 8 0 w 0 s m m v o.' 0 0 0 5 I R T F 3 s.Y.;XFXLXLXLXLXLXLXLXLX",
"LXLXLXLXLXLXLXBX&Xz.N j 7 F F S E ,...i m h Y H T R g m j w 9 w +.7 8 1 1 u m f ` R R Y q 9 q %.,.,.[ 6 8 s.T.>XFXLXLXLXLXLXLXLX",
"LXLXLXLXLXLXDX:Xb.e < c n g $ E ,.9.<.#.a U W R T D 7 m s 4 7 ,.,.,.O.7 +.h b 7 J Q K Q ` 8 +.7.9.w.;.6 s y z.L.dXKXLXLXLXLXLXLX",
"LXLXLXLXLXLXkXL.s.u z n m b + -.w.8.e.>.u $ J T Y S , l * 4 @.0.w.w.<.&.>.v l s S K R W G 1 >.e.8.9.;.k j f r ].E.VXLXLXLXLXLXLX",
"LXLXLXLXKXLX#XA.9 s d z n l 5 &.8.q.w.<.@ @ H H S % , I K H 5.w.7.q.;.%.h n n n * F R J & u >.7.8.6./ f n v < j Y.>XLXLXLXLXLXLX",
"LXLXLXLXLXHX).u.5 0 s u i s 0 7 -.;.;.X.d n g % * ,.E K R J *.7.9.:./ G i n z m j % F % 5 s #.<.6.-.#.: d n j < s.*XLXLXLXLXLXLX",
"LXLXLXLXLXNXW.u.+ q ` 6 5 9 w 0 7 E T U f m z 2 7 ,.! D R Y h $.$.%.! E ; l n b h +.4 0 9 0 s X.#.v z d i b m < S.).GXLXLXLXLXLX",
"LXLXLXKXLXpXT.S.O P H K ` 8 0 8 3 F T R ' n j 5 0 +.o.J H h l z f X.,.5.O.: z z n #.f j 9 w 0 j $.$.$.g & d f r ).P.MXLXLXLXLXLX",
"LXLXLXLXKX!.m.E.a.P T K [ k 0 0 * S R W W g 9 0 0 8 w *.o.b n n a #.9.w.7.o., X.f m m m f 0 w @.<.8.<.[ Y L 4 D.+Xb.pXLXKXLXLXLX",
"LXLXLXLXVXk.k.T.E.B Y R -.,.+.+.' S R Y Q * 9 0 0 8 7 0.>.d z z p $.9.7.w.5.K ! g l n n n 6 ` %.,.w.6./ K K p.+XK.h.`.LXLXLXLXLX",
"LXLXKXLXaXh.N.l.E.Y.X P ) w.q.7.>.% J H D o.9 0 0 1 g >.U h z a u -.9.7.9.,.J K Y x m m f Y Q J J ,.:.-   p._.U.k.M.B.DXLXLXLXLX",
"LXLXLXLX{.n.N.M.N.P.!.d.| ) 4.0.>.p * Y %.7.@.5 2 s v v * ` s s 9 ' &.;.*.! ] ] K & d i = Q K Q P ^ ^ . oX_.U.k.M.N.h.gXLXKXLXLX",
"LXLXLXDXN.M.N.M.M.M.T.I.`.3X1X=.~ - - / 6.9.7.@.u j n b 7 G 9 0 w 4 ' / E S J W F @ u + O A Z Z F ,X%XOX+XK.k.k.N.N.h.:XLXLXLXLX",
"LXKXLXdXh.N.M.M.M.M.k.V.T.T.G.uX|.,X} o.6.3.0.:.; x c c , $ 4 0 9 4 D R , & L L & + # @ 3 _ } .XXXOX@X@X(.M.M.M.M.N.M.J.GXLXLXLX",
"LXLXLX{.n.N.M.N.M.N.M.k.k.V.Z.Z.W.D.y.p.<X6Xr.@.2 l z x * O # = 7 o.J H c z s k N r |.a.p.XXOX$X@X@X(.E.W.L.M.M.M.M.N.j.mXLXLXLX",
"LXLXDXl.M.M.N.M.M.M.M.M.M.k.k.N.V.T.T.T.R.F.`.d.s.i.|.t } } 3 | 2.2.| t  X X|.f.d.F.@X$X$X@X+X(.W.W././.(.E.M.M.M.N.N.b.=XLXKXLX",
"LXLX=Xj.N.M.M.M.N.M.M.M.M.M.N.M.M.M.N.V.H.L.Y.Y.E.!.!.!.`.`.'.{.{.{.`.#X}.#X'.'.).~.U.^.(././././././././.W.M.M.M.M.M.M.Q.MXLXLX",
"LXVXH.k.M.M.M.M.M.M.M.M.M.M.N.M.M.M.M.M.M.M.M.V.L.V.L.L.L.L.T.L.L.V.I.I.R.I.I.P.L.V.k.T./.W././././././././.L.k.N.M.M.N.j.=XLXLX",
"LXsXh.N.M.M.M.M.M.M.M.N.M.N.M.M.M.M.N.M.M.M.k.k.k.k.k.M.M.M.n.M.M.M.M.k.k.k.j.j.k.n.j.P.(./././././././././.E.M.M.M.M.N.M.N.VXLX",
"JX`.k.N.M.M.M.N.M.M.M.M.M.M.N.M.M.N.M.M.M.N.M.N.M.M.M.M.M.M.M.M.M.M.M.M.M.M.M.M.M.N.M.P.(././././././././././.N.M.M.M.M.l.j.;XLX",
"MXN.N.N.N.M.M.M.N.M.M.M.M.M.M.M.M.M.M.M.M.M.M.M.M.M.M.M.M.M.M.M.M.M.M.M.M.M.N.M.M.M.M.L./././././././././././.L.M.N.M.N.M.k.Y.KX",
"sXM.N.M.M.M.M.M.M.M.M.M.M.M.M.M.M.M.M.M.M.M.N.M.M.M.M.N.M.M.M.M.M.M.M.M.N.M.M.M.M.N.M.L./././././././././././.E.k.N.M.M.M.N.J.NX",
";Xn.J.M.N.M.N.M.N.M.M.N.M.N.M.M.M.M.N.M.M.M.M.M.N.M.M.M.M.N.M.M.M.M.M.M.M.M.M.N.M.M.M.N././././././././././././.N.M.M.M.M.H.M.mX",
";Xj.K.k.M.M.M.M.M.M.M.M.M.M.N.M.M.N.M.M.V.M.M.M.M.M.M.M.M.M.N.M.M.M.M.M.M.N.M.M.M.M.M.N././././././././././././.L.M.M.M.N.H.M.mX",
"gXn.H.H.M.M.M.M.M.M.M.M.M.N.M.M.M.M.M.M.M.M.M.N.M.M.M.M.N.M.M.M.M.M.M.N.M.M.M.M.M.M.M.N.W./././././././././././.E.k.M.M.K.N.V.DX",
"VXJ.k.P.H.M.M.M.M.M.M.N.M.M.N.M.M.N.M.M.N.M.M.M.M.M.M.M.M.M.N.M.N.M.M.M.M.N.M.M.M.M.M.M.W././././././././././././.N.k.P.K.b.{.LX",
"LX}.h.B.K.H.k.M.N.M.M.M.M.M.M.M.M.M.M.M.M.M.M.M.N.M.N.M.M.M.M.M.M.M.M.M.M.M.M.M.M.N.M.M.E././././././././././././.L.H.K.B.h.sXLX",
"LXNXx.M.V.H.K.M.M.M.N.M.M.M.M.M.M.M.M.N.M.M.M.M.M.N.M.M.N.M.M.M.M.M.M.M.M.M.M.N.M.M.N.k.E././././././././././.W.(.~.K.B.b.l.FXLX",
"LXGXsXx.n.B.K.H.V.M.M.M.M.N.M.M.N.M.M.M.M.M.N.M.M.M.M.M.M.M.M.N.M.M.M.M.V.M.M.M.M.M.M.k.R././././././././././.^.^.(.P.v.v.mXLXLX",
"KXLXDXpXv.b.N.K.P.H.N.N.M.M.M.M.M.M.M.M.M.M.M.M.M.M.M.M.M.M.M.M.N.M.M.M.M.M.M.M.M.N.M.M.T.(./././././././.(.^.^.^./.T.M.fXLXLXLX",
"LXLXLXDX=XC.b.M.H.P.P.H.N.M.M.M.M.M.M.M.M.M.M.N.M.M.M.M.M.N.M.M.M.M.M.N.M.M.M.M.M.M.M.k.P././././././.^.^.^.^./.W./.`.pXLXLXKXLX",
"LXLXKXLXKX=XQ.m.M.k.H.J.P.K.V.N.M.M.M.M.M.M.M.N.M.M.M.M.M.M.M.M.M.M.M.M.M.M.M.M.M.M.M.M.L./././.^.^.^.^.^./././.W.'.dXLXLXLXLXLX",
"LXLXLXLXKXGXjXY.x.v.m.N.J.J.P.L.L.K.N.N.M.n.M.M.M.M.M.N.M.M.M.M.M.M.M.M.M.M.M.k.M.M.M.k.H.(.^.^.^././.W./.W.T.W.*XVXKXLXxX9XZXLX",
"LXLXLXAXHXLXJXVXgX`.x.x.v.m.b.l.M.V.J.J.L.H.H.H.N.N.N.N.N.M.M.M.M.M.M.M.M.N.N.H.V.H.K.H.P.E._.(./.F.d.G.E.E.*XmXVXKXLX0X| w 4XAX",
"LXLXxX8XrXAXLXLXFXmXfX=XK.m.2X<X2Xl.V.B.K.K.P.P.J.H.K.H.H.H.H.H.H.L.H.H.H.K.H.K.K.H.P.K.B.I./.W.D.} J B -XkXVXKXLXLXCXw 2 2 @ xX",
"LXCX9 + + 8XGXLXLXLXLXNXdX3X;.4.3.2Xh.v.h.M.M.N.V.K.K.K.K.P.J.K.K.H.K.K.L.K.V.H.N.M.m.n.v.V./.).p.A P A { KXLXLXLXLX8X+ w w 1 9X",
"LX9X@ w 9 @ vXLXLXKXLXLXLXeX3.q.9.8.[.!.Q.C.C.m.m.n.n.n.n.M.k.m.M.M.n.M.m.j.j.m.k.C.z.Q.!.{.:XaX .P ] R P yXLXKXLXLX8X1 8 4 w CX",
"LXrX@ w 0 1 5XLXKXLXLXHXLXyX) 9.q.3.yXmXsX;X}.!.K.N.j.b.v.v.g.c.g.g.g.v.b.M.N.P.`.}.;XfXMXDXKXKXtXO C D V tXLXLXLXLXZXy @ w xXLX",
"LXGX| o @ o xXLXLXLXLXLXLXSX5.( ( ( nXKXJXDXDXDXVXVXNXMXmXjXgXmXgXjXmXmXMXNXVXDXDXDXFXJXKXLXLXLXHXtX_ V  .SXLXLXLXLXHXZXCXZXGXLX",
"LXLXvX9X4X8XAXLXLXLXLXLXLXLXnXyXeXyXHXLXLXLXLXLXLXLXLXKXKXKXJXJXLXJXKXKXLXLXLXLXLXLXLXLXLXLXLXLXLXSXzXtXCXLXLXLXLXLXLXLXLXLXLXLX",
"LXLXLXGXvXGXLXLXLXLXLXLXLXLXLXGXSXLXLXLXLXKXLXLXLXLXLXLXLXLXLXLXLXLXLXLXLXLXLXLXLXLXKXLXLXLXLXLXLXLXLXLXLXLXLXLXLXLXLXLXLXLXLXLX",
"LXLXLXLXLXLXLXLXLXLXLXLXLXGXLXLXLXLXLXLXLXLXLXLXLXLXLXLXLXLXLXLXLXLXLXLXLXLXLXLXLXLXLXLXLXLXLXLXLXLXLXLXLXLXLXLXLXLXLXLXLXLXLXLX",
"LXLXLXLXGXLXLXLXLXLXLXLXLXLXLXLXLXLXLXLXLXLXLXLXLXLXLXLXLXLXLXLXLXLXLXLXLXLXLXLXLXLXLXLXLXLXLXLXLXLXLXLXLXLXLXLXLXLXLXLXLXLXLXLX",
"LXLXLXLXLXLXLXLXLXLXGX0X7XcXLXLXLXLXLXLXLXLXLXLXLXLXLXLXLXLXLXLXLXLXLXLXLXLXLXLXLXLXLXLXLXLXLXLXLXLXLXLXLXLXLXLXLXLXLXLXLXLXLXLX",
"LXLXLXLXLXLXLXLXLXGX7Xn x 1.AXLXLXLXLXLXLXLXLXLXLXLXLXLXLXLXLXLXLXLXLXLXLXLXLXLXLXLXLXLXLXLXLXLXLXLXLXLXLXLXLXLXLXLXLXLXLXLXLXLX",
"LXLXLXLXLXLXLXLXLXrX> x x ; bXHXLXLXLXLXLXLXLXLXLXLXLXLXLXLXLXLXLXLXLXLXLXLXLXLXLXLXLXLXLXLXLXLXLXLXLXLXLXLXLXLXLXLXLXLXLXLXLXLX",
"LXLXLXLXLXLXLXLXLX1.f M z f bXLXLXLXLXLXLXLXLXLXLXLXLXLXLXLXLXLXLXLXLXLXLXLXLXLXLXLXLXLXLXLXLXLXLXLXLXLXLXLXLXLXLXLXLXLXLXLXLXLX",
"LXLXLXLXLXLXLXLXLX7X: > ; 1.LXLXLXLXLXLXLXLXLXLXLXLXLXLXLXLXLXLXLXLXLXLXLXLXLXLXLXLXLXLXLXLXLXLXLXLXLXLXLXLXLXLXLXLXLXLXLXLXLXLX",
"LXLXLXLXLXLXLXLXLXZX1.N 7XSXLXLXLXLXLXLXLXLXLXLXLXLXLXLXLXLXLXLXLXLXLXLXLXLXLXLXLXLXLXLXLXLXLXLXLXLXLXLXLXLXLXLXLXLXLXLXLXLXLXLX",
"LXLXLXLXLXLXLXLXLXLXAXbXZXLXLXLXLXLXLXLXLXLXLXLXLXLXLXLXLXLXLXLXLXLXLXLXLXLXLXLXLXLXLXLXLXLXLXLXLXLXLXLXLXLXLXLXLXLXLXLXLXLXLXLX",
"LXLXLXLXLXLXLXLXLXLXLXLXLXLXLXLXLXLXLXLXLXLXLXLXLXLXLXLXLXLXLXLXLXLXLXLXLXLXLXLXLXLXLXLXLXLXLXLXLXLXLXLXLXLXLXLXLXLXLXLXLXLXLXLX",
"LXLXLXLXLXLXLXLXLXLXLXLXLXLXLXLXLXLXLXLXLXLXLXLXLXLXLXLXLXLXLXLXLXLXLXLXLXLXLXLXLXLXLXLXLXLXLXLXLXLXLXLXLXLXLXLXLXLXLXLXLXLXLXLX",
"LXLXLXLXLXLXLXLXLXLXLXLXLXLXLXLXLXLXLXLXLXLXLXLXLXLXLXLXLXLXLXLXLXLXLXLXLXLXLXLXLXLXLXLXLXLXLXLXLXLXLXLXLXLXLXLXLXLXLXLXLXLXLXLX"
};
