/* XPM */
static char *_d9b20c612fe4231c06b70955eb1fa79500IaA8DBMMwI2mY[] = {
/* columns rows colors chars-per-pixel */
"64 64 207 2 ",
"   c #030203",
".  c #080607",
"X  c #0A0907",
"o  c #060609",
"O  c #090709",
"+  c #0C0B0B",
"@  c #070803",
"#  c #110D0D",
"$  c #0F100B",
"%  c #12110E",
"&  c #0F0E11",
"*  c #120E11",
"=  c #141213",
"-  c #191616",
";  c #161619",
":  c #19161A",
">  c #1B1A1C",
",  c #1D1C21",
"<  c #211F23",
"1  c #232224",
"2  c #26242A",
"3  c #2B2A2D",
"4  c #29272C",
"5  c #2D2D33",
"6  c #322E32",
"7  c #2D313B",
"8  c #333235",
"9  c #35343A",
"0  c #39363D",
"q  c #3B3A3D",
"w  c #37383C",
"e  c #473B3B",
"r  c #503930",
"t  c #663F2B",
"y  c #4F403D",
"u  c #5B453D",
"i  c #584139",
"p  c #6B4A3A",
"a  c #2F3541",
"s  c #343642",
"d  c #3C3C43",
"f  c #383E49",
"g  c #423E43",
"h  c #3E414C",
"j  c #424145",
"k  c #4C4345",
"l  c #46454B",
"z  c #49474C",
"x  c #4A494E",
"c  c #47484C",
"v  c #534543",
"b  c #544847",
"n  c #5C4A44",
"m  c #544B4C",
"M  c #5B4D4C",
"N  c #554746",
"B  c #424551",
"V  c #4D4C52",
"C  c #484D58",
"Z  c #514F54",
"A  c #584F50",
"S  c #514F5A",
"D  c #4F5054",
"F  c #4C515D",
"G  c #525156",
"H  c #5B5254",
"J  c #55545A",
"K  c #59575C",
"L  c #57585C",
"P  c #5A595E",
"I  c #644D46",
"U  c #64514C",
"Y  c #6C5147",
"T  c #72554A",
"R  c #755648",
"E  c #625454",
"W  c #6C5955",
"Q  c #625B5D",
"!  c #695B5A",
"~  c #765F56",
"^  c #7B5E53",
"/  c #79635B",
"(  c #4D5563",
")  c #4F5869",
"_  c #535661",
"`  c #565963",
"'  c #5D5C62",
"]  c #5C5C69",
"[  c #585663",
"{  c #615F64",
"}  c #5F6066",
"|  c #626166",
" . c #65646B",
".. c #68676D",
"X. c #67686D",
"o. c #6A696E",
"O. c #6B6465",
"+. c #716B6D",
"@. c #676570",
"#. c #696771",
"$. c #6C6B73",
"%. c #6F6E79",
"&. c #716F75",
"*. c #716F7B",
"=. c #727176",
"-. c #74737C",
";. c #78777E",
":. c #79797D",
">. c #797579",
",. c #6E757F",
"<. c #855F4C",
"1. c #8E634C",
"2. c #9C694D",
"3. c #98654B",
"4. c #87675A",
"5. c #956E5C",
"6. c #996C54",
"7. c #98715E",
"8. c #A56C4D",
"9. c #A66A47",
"0. c #A66E50",
"q. c #AA7353",
"w. c #A37359",
"e. c #947769",
"r. c #A17A65",
"t. c #767681",
"y. c #797782",
"u. c #7B7B83",
"i. c #7F7E89",
"p. c #767E89",
"a. c #817F8B",
"s. c #807F84",
"d. c #7F8084",
"f. c #828286",
"g. c #83838B",
"h. c #8A8A8D",
"j. c #87888C",
"k. c #8D8D92",
"l. c #888693",
"z. c #908F95",
"x. c #8F9094",
"c. c #929295",
"v. c #98979C",
"b. c #9A9B9E",
"n. c #97979B",
"m. c #A49E9E",
"M. c #9C9CA2",
"N. c #A1A1A6",
"B. c #A7A7AA",
"V. c #B3AFAE",
"C. c #ADADB3",
"Z. c #B3B3B6",
"A. c #B4B5BB",
"S. c #BBBBBD",
"D. c #BCB5B4",
"F. c #BDBDC1",
"G. c #C0BFC5",
"H. c #C2C2C5",
"J. c #CBCACE",
"K. c #C4C4C9",
"L. c #CCCCD1",
"P. c #C4C9D3",
"I. c #D0CFD4",
"U. c #D2D2D5",
"Y. c #D5D5DB",
"T. c #DADBDC",
"R. c #D8D6D9",
"E. c #D4C9C3",
"W. c #E3D9D7",
"Q. c #DFDEE3",
"!. c #DFE0E2",
"~. c #E4E4E5",
"^. c #E5E5E9",
"/. c #E7E8EB",
"(. c #EBEBED",
"). c #ECE7EB",
"_. c #F2ECE9",
"`. c #EDEDF2",
"'. c #F2F2F5",
"]. c #F7F7F7",
"[. c #F5F5F6",
"{. c #F3F3F4",
"}. c #FBF6F3",
"|. c #FCFAF4",
" X c #F7F7F9",
".X c #F6F5FA",
"XX c #F5F5F9",
"oX c #F8F7FC",
"OX c #F7FAFC",
"+X c #F8F8F8",
"@X c #FAFAFA",
"#X c #F8F8FA",
"$X c #FBFBFD",
"%X c #FAF9FE",
"&X c gray99",
"*X c #FDFDFD",
"=X c #FFFFFD",
"-X c #FDFDFF",
";X c #FCFCFE",
":X c #FEFEFE",
">X c #FEFEFF",
",X c #FFFEFF",
"<X c white",
"1X c #FEFDFF",
"2X c #FDFDFE",
"3X c #F6F8F7",
"4X c #F6F5F4",
/* pixels */
"<X<X<X<X<X<X<X<X<X<X<X<X<X<X<X<X&X&X<X<X<X<X<X<X<X'.<X<X[.S.g.v.%XoX<X'.%X<X<X'.&X<X<X<X<X<X&X&X<X<X<X<X<X<X<X<X<X<X<X<X<X<X<X<X",
"<X<X<X<X<X<X<X<X<X<X<X<X<X<X<X<X<X<X<X<X<X<X<X<X<X<X+X'.'.o.V g H.<X1X<X<X X%X<X&X<X&X<X<X<X&X&X<X<X<X<X<X<X<X<X<X<X<X<X<X<X<X<X",
"<X<X<X<X<X<X<X<X<X<X<X<X<X<X<X<X<X<X<X<X<X<X<X<X+X<X<X<XoXS.K | &.oX.X1X<X[..X<X&X&X<X<X<X<X<X<X<X<X<X<X<X<X<X<X<X<X<X<X<X<X<X<X",
"<X<X<X<X<X<X<X<X<X<X<X<X<X<X<X<X<X<X<X<X<X<X<X<X<X.X%X<X`.<X| P z U.<X'.<X<X<X[.<X%X<X<X<X<X<X<X<X<X<X<X<X<X<X<X<X<X<X<X<X<X<X<X",
"<X<X<X<X<X<X<X<X<X<X<X<X<X<X<X<X<X<X<X<X<X<X<X<X<X%X#X.X<X%XA.J l k.<X^.<X<X<X%X<X$X<X<X<X<X<X<X<X<X<X<X<X<X<X<X<X<X<X<X<X<X<X<X",
"<X<X<X<X<X<X<X<X<X<X<X<X<X<X<X<X<X<X<X<X<X<X<X<X<X<X%X[.<X'.<Xv.V G 1XoX<X.X.X<X$X<X<X<X<X<X<X<X<X<X<X<X<X<X<X<X<X<X<X<X<X<X<X<X",
"<X<X<X<X<X<X<X<X<X<X<X<X<X<X<X<X<X<X<X<X<X<X<X<X+X$X<X<X1X<X%XI.J z J.1X<X%X<X<X<X$X$X<X<X<X<X<X<X<X<X<X<X<X<X<X<X<X<X<X<X<X<X<X",
"<X<X<X<X<X<X<X<X<X<X<X<X<X<X<X<X<X<X<X<X<X<X<X<X<X<XoXoXU.v.$.Z G j u.L.L.(.$X{.$X<X<X<X<X<X<X<X<X<X<X<X<X<X<X<X<X<X<X<X<X<X<X<X",
"<X<X<X<X<X<X<X<X+X<X<X&X&X<X<X+X&X<X<X<X[.$X<X.X'.K.j.{ z g d d z j g [ $.u.v.M.Z.`.<X'.&X<X&X$X{.&X<X+X<X+X[.<X<X<X<X<X<X<X<X&X",
"<X<X<X<X<X<X<X<X<X[.[.<X<X[.+X<X<X{.$X+X$X%XJ.N...J j j V V z j j g | ' P $.>.c.u.o.k.U.3X3X3X<X&X{.'.<X<X<X<X+X<X&X<X<X<X&X&X<X",
"<X<X<X<X<X<X<X<X+X<X<X&X+X<X<X<X&X<X4X4XY.&.j J S z g B V V z l l 0 V V K >.&.-.c.>.P K >.H.&X|.+X{.<X+X(.<X<X{.<X&X<X<X<X<X<X<X",
"<X<X<X<X<X<X<X<X[.<X<X+X[.<X<X+X{.3X~.j.x | X. ...P V l l V V Z l l l V V P  .' s.c.f.o.G x d.T.<X<X+X+X<X<X+X<X&X<X<X<X<X<X<X&X",
"<X<X<X<X<X<X<X<X<X<X&X&X<X+X+X<X&XH.L x .. .$.' Z z j j B V Z J l V V x z G ..{ x f.k.$.X.| H P S.(.&X|.+X&X+X&X&X&X<X<X<X<X<X<X",
"<X<X<X<X<X<X<X<X<X<X&X+X<X<X+X/.d.m Q } x P P J V z l z V z V z V d S l l | ' $.{  .>.:.| K L L H x.~.<X{.{.<X&X<X&X<X&X<X<X<X<X",
"<X<X<X<X<X<X<X<X[.<X<X+X<X|.J.h.x ' G G J x V l S z l l z z B V V l ' V d l V ..=.P { >.d.&.Q D L j :.T.<X<X&X<X+X<X<X<X<X<X<X<X",
"<X<X<X<X<X<X<X<X<X&X+X<X<XU.d.8 K ' P K J z g J Z V V V Z V V z S l d l V V J Z |  .J J =.&.P ' Q H c o.H.<X<X'.&X&X&X<X<X<X<X<X",
"<X+X[.<X<X[.<X+X|.<X<X%XJ.:.G G G V x V z z l z x Z V V V V G J J V z j c x x x K  .| x | >. .{ | y } D D H.|.3X&X<X<X&X<X<X<X&X",
"<X<X<X<X<X+X<X<X&X+X<XT.:.c V J V V x z l j l z G G Z x j z Z J K V z x V x V G K K  .J V X.o.| x L D L L Q Z.|.&X4X<X&X+X<X{.&X",
"&X<X<X+X&X<X+X<X&X&XU.d.x z G x z c c c j j z V Z G G V V V Z G [ V c V Z x x V K G  .P j J $. .L D D D L g Q J.<X{.&X$X+X<X|.<X",
"<X<X<X[.<X<X[.+X|.!.c.D G  .K g j j d g j c Z [ J J G V V V V G K G V x V Z G G G z X.O.l l P ..| x D c D G D X.T.<X|.&X<X3X<X+X",
"<X+X&X&X<X<X<X<X3Xb.X.X.Q P L c c g d g j x J P O.{ K V z z V V J P J x z G J G x x | o.' j j | Q } x D m D | w h.[.<X+X<X+X<X+X",
"&X<X&X<X+X+X<X<XZ.>.L | | G G G Z x z z V G J ' {  .{ [ K J S Z J K J V z x Z x x D K  .$.V 9 J } } c c L G G x j Z.<X<X<X<X+X<X",
"+X&X+X<X+X%X<XJ.:.=.P L | | A L J G Z G Z Z G K J K { O.{ { [ H P J G G V x x Z V V D P $.' d l | P G c L L c Q q X.J.<X&X<X[.<X",
"+X<X`.<X<X<X.Xk.=.| o.o.L G L D x Z Z Z Z z z x ' K K Z J K K {  .K J ' P Z x J J x x G ..X.l d L +.G G c j Q D K j c.<X<X[.<X[.",
"&X|.<X&X.X1XC.=..... .' ' ' L D z A K H g 6 < : < : * * * : < s K >.+.} D P G } J G Z G [  .K 0 j P [ G Z Z G P J x G F.&X<X<X%X",
"&X&X<X<X1XQ.k.....] '  .+.o.P G G z q 3 , * & & O + & * * O O & 2 3 w V | o.L +.[ J S V J  .[ l d J ' J x V G J G z H h.3X<X<X<X",
"&X+X<X<X1XA.-...@.] { #.=.| G c 3 2 > = * * * * & O O * * * * = + X = 1 G o.| =.G G Z V Z '  .K 9 V ' P x V J G G D x P U.<X<X<X",
"&X&X&X%X^.k...$.@. .....' V g 8 > > = = : = = # * & O O & O * * $ = =   1 D &.P V V V V V [ ..| q j J ' Z G J Z K P x J b.<X+X%X",
"&X&X<X&XA.:.@.#.]  .{ _ l d 6 < > : - * * * * * O O # * * # # + X = = @ @ 1 X.D l V S G G [ @.#.V d z P [ J G V P ' V G o./.<X#X",
"|.&X<X(.c.>.$.@.[ ] [ g 0 9 3 ; # * * = - * * * O O * * * * * - = X o > @   c } Z G [ P K [ @.$.[ q 0 J ' J G Z K J J G H Z.<X#X",
"|.&X<XH.u.-.*.*.{ @.[ z 0 3 1 = * - - - - # O . * # + O # O O O = $ X = +   > } | ' { { J _  .@.] l 8 z { P V V G G J Z x f.<X+X",
"&X&X+XN.>.-.-.i.t.t.*.[ 9 > = * - - # # # # * # O O O # * - = #   = %   + ;   j =.@.@.] J S ]  ...V 6 d ' ' V V G { G G c o..X$X",
"#X<X/.u.o.u.y.#.u.-...V 3 - - % % % - # # # # X X X # X + # % % X $ $ $ X X $   X.X.P | X.P ' $. .P w 8 ' @.J V F G L D D D K.$X",
"&X$XU.u.*.y.-.t.y.=.| z 1 - - - - - # - X X X # X X X # + $ # % X $ $ $ $ $ $   G | P P  .' [ { #.} q 3 l } ` L K ` [ J D V B.<X",
"<X#XZ.d.-.u.y.l.s.*.' d < $ % % % - # # # X + + X X # X + X + X $ $ $ $ + $ $   j  .| J ' ' [ J | } c 5 d ' } J G [ L J D x j.<X",
"$X[.b.f.u.f.s.l.a.&.G 8 > $ % % # # # # # X + X X X X X X X X + X X $ $ + $ +   q o.o.J ' ' ' ' } } D 9 7 _ $.} G _ [ L L V $.<X",
"<X(.j.d.:.a.s.l.g.#.V 3 = * = + # # # # X X X X X X X X X X X X X X + $ + = $   8 X.#.P [ J _ | X.| L 8 2 c $.$.` L ' L L D L `.",
"%XT.d.u.*.y.u.a.a. .l 4 = & = + # # # # # + + X X X X X X X O X @ @ X $ + $ +   2 ..$.P K l j G } | ' g 2 h } X.' J ` ' } D L T.",
"OXJ.d.d.#.*.y.a.y.@.V 3 * & # # # # # # # O O O X X X X O + O X X @ @ @ o $ +   : ' ..G J j d V D L P c 5 7 D  .} V P P P L L H.",
"$XF.d.d.#.%.i.l.y.#.S 9 = + + + # # X X O # O O O X X X O + + O X @     o + &   o Z [ l G V V K x D G h 5 5 C o.$.J } ` L D ` B.",
"<XB.d.k.g.,.u.y.*.y.@.6 O O * & - + . . O O O . o o o     . .     o   @ &   o   & V [ V V l x Z l D L x 5 5 V [ #.` J L F | x N.",
"`.n.j.d.p.X.%.i.a.t.{ s , O O * . . # * + O o . o               X @         =   5 ' | J K G V V V J L x 5 5 V ' $.` J L L P D c.",
"(.c.x.l.y.@.] t.a.t.{ x < O o * . O # o o o o O + o o o O     o o   o   &   =   q ' ' K ' [ Z S D L } V 5 5 l ` #. .J J } L G g.",
"/.d.d.g.i.#._ [ @.y.y.K 4 O o * # + .     + O o o + $ @   o o       o o o   o o x ' [ ' | K Z Z G L [ V s 5 j [ $.#.` D | L ' :.",
"/.f.d.a.i.t.[ ] ] y.a.{ 5 + o @ @ o $ $ & = = o @ $ ; $ + & = $ + = o o o     5 ' o...o...G V z D G L G j 9 s V } $.} V o.L } =.",
"/.x.l.a.i.t.%.t.*.t.y.#.l < o   o % ; ; & ; 1 2 3 3 6 8 8 1 < 2 , 5 , 1 , , : V ' o...$. .Z l z c D L G C 9 0 B } $.} V } L } =.",
"Y.k.i.y.t.t.t.%.y.y.*.&.' q > X & ; > ; ; 1 9 h h q y j h w 8 9 9 8 9 g 9 j d V J ' ' | ' V z z h D G L C 8 8 c } ,.X.V L L ' =.",
"P.j.t.y.y.p.i.%.t.y.y.&. .Z 8 ; o o ; > 3 q c m c c c l j x G G c 5 j j 9 V J z K { ' | P Z Z x c D L G x 8 7 x } =.o.D G } ` :.",
"A.-.u.i.u.t.u.u.t.$.` X.#.| ' d #   + < 8 w q c G P V j | -.V | c g 3 0 Z Q Z Z m M [ { O.Q M g D G L F g s s g [ a.&.Q Q S { t.",
"C.-.u.u.t.-.-.%.-.%.@.$.%.&.&.L c 3 > = > 6 q x Q ' | L G ' V $.P k 6 c m z z H Z { O.E E E g g x V F J g s s g E O.O.S S @.F p.",
"C.u.d.t.-.u.u.#.=.&.X.' ` } -.$. .J z 9 8 q h j j j L L 0 8 2 d 5 5 7 ' [ x j z m { ! E E m u g k k x Z C s g g [ +.+.E S  .[ P.",
"C.t.d.-.=.-.-.#.u.u.,. .`  .-.=.&.@...K D D x K ' G D z s d 0 l h h h ' G z A N I N g U W M g g N g z V g f f g A *.O.Q J S t.oX",
"F.,.%.%.$.$.%.,.-.t.p.;.%.%.%.X.#.{ *.&.#. .'  . .| V l G ' V K F C h L g N W ~ ^ ~ ^ ^ 4.<.Y U U M N V g d g C J &.Q ..G G F.<X",
"P.t.%.%.%.$.%.t.$.#.-.-.-.-.%.@.%.{ #.y.s.y. . .| $.' | $.$.K ` h s w G N n Y 4.7.r.r.5.6.5.5.5.4.W A A g f f C { o. .O.j >.<X%X",
"Y.y.t.*.t.%.%.-.u.#.%.%.%.t.t.t.i.*.%.#.%.*.*.=.#.@.[ P x x V G K g j n N u t 6.3.q.0.9.9.8.0.7.5.~ A M V d s g [ ..{ P K D.1X1X",
"Q.i.t.,.t.,.%.$.p.@.%.-.%.-.$.,.#.t.y.*.#.y.%.*...K L | d q j g d 9 k v t Y t 6.q.8.9.9.q.9.3.0.5.~ U A m f f g J #.Q P B.1X{.1X",
"`.t.=.d.$.@.} $.&.$.$.X.@.$.$.$.*.*.*.%.#.#.$.*.%...J c l x j d 5 0 e e n i p r.6.q.q.0.8.0.0.3.<.~ I b x h h _ ` @.K e.OX<X<X+X",
"$XB.$.:.u.=.$.X.$.X. .X.$.$.%.$.%.*.-.*.*.%.$.$.$. .J V S G V l B C z j v r r <.1.3.1.1.1.2.6.5.e.~ W M 9 0 V C } } { J.$X<X<X<X",
"$XU.:.X.X.C ' } $.} X.X.o.X.$.$.o.o.@.#.$.$.@.@.#. . . .....| J C ) ( C z e e n t g I T T T T <.I n M Z Z j C }  .J h.&X<X<X%X<X",
"OX$X`./.R.N.M.x.=.o.X.o.X.} L } #.......$.$.=.=.>.=.#. .| | ` J _ ) ( C B 7 3 0 6 6 g A E M M E W ! m e z j d V L X.R.&X1X<X.X$X",
"%XOX#XOX$X<X$X$X<X{./.!.U.S.C.C.k.h.s.:.&.$. .' G K K [  .....| ` _ S B f s 7 s s d z [ { A z m A H { x 9 c } G Q V.<X{.&X[.%X$X",
"$X#X<X$X{.<X$X{.<X$X$X<X$X$X<X<X<X<X<X%X'.^.T.L.Y.F.N.f.&.o.#.$. .' J V C C ( C ( C _ {  .{ { O.O.H m x l l l x m.&X}.|.<X'.$XOX",
"#X{.<X<X+X<X$X<X+X+X&X+X+X+X3X+X'.[.%X<X<X<X<X<X[.%X<X<X<X<X[.).W.E.D.m.f.*.] F ] _ S Z S H P Q Z P L F z d ..S._.&X_.|.<X$X$XOX",
"$X<X+X&X<X+X3X<X$X<X<X$X$X$X<X$X<X<X<X<X1X%X<X<X<X<X%XoX.X1X<X&X|.}.|.|.&X X'.^.P.A.M.g.=.O.E M ..' | $.f.Z.(.<X&X}.&X<X[.$XOXOX"
};
