/* XPM */
static char *c0619ad703434757aacc2140e460af98ufdW80RjCyrWD99A[] = {
/* columns rows colors chars-per-pixel */
"64 64 252 2 ",
"   c #18171A",
".  c #0C0E15",
"X  c #281D17",
"o  c #281A05",
"O  c #1C231D",
"+  c #2D231C",
"@  c #2A2418",
"#  c #32251C",
"$  c #34291D",
"%  c #3C2B1D",
"&  c #362514",
"*  c #362A16",
"=  c #1A1C25",
"-  c #1B1E2A",
";  c #151827",
":  c #171C36",
">  c #0C112A",
",  c #231C27",
"<  c #231C34",
"1  c #1C222B",
"2  c #1A2327",
"3  c #1D2334",
"4  c #1A2638",
"5  c #112A3C",
"6  c #242425",
"7  c #2D2323",
"8  c #24242C",
"9  c #2B252B",
"0  c #2B2B2C",
"q  c #292A26",
"w  c #312524",
"e  c #352B24",
"r  c #3C2D23",
"t  c #342C2B",
"y  c #3B2E2B",
"u  c #36262A",
"i  c #3C322B",
"p  c #393126",
"a  c #222534",
"s  c #242A34",
"d  c #23253A",
"f  c #242B3B",
"g  c #2B2B3B",
"h  c #2A2835",
"j  c #362C34",
"k  c #27333A",
"l  c #353232",
"z  c #3A3537",
"x  c #2D322B",
"c  c #412D1C",
"v  c #43311D",
"b  c #412E22",
"n  c #422F2A",
"m  c #433224",
"M  c #4A3423",
"N  c #43342B",
"B  c #4A362B",
"V  c #4D3A2C",
"C  c #493A2A",
"Z  c #523C2C",
"A  c #53392A",
"S  c #433633",
"D  c #453A34",
"F  c #4C3C33",
"G  c #483A3A",
"H  c #523E32",
"J  c #593F30",
"K  c #3B483A",
"L  c #4C412B",
"P  c #57422E",
"I  c #4C4334",
"U  c #4C423A",
"Y  c #4A4639",
"T  c #544333",
"R  c #5A4434",
"E  c #53433B",
"W  c #5B4639",
"Q  c #544C3C",
"!  c #5B4B3B",
"~  c #584A35",
"^  c #5A523D",
"/  c #56503D",
"(  c #634B3C",
")  c #634B38",
"_  c #65523C",
"`  c #6A543D",
"'  c #68583F",
"]  c #151D46",
"[  c #1C2444",
"{  c #1A2646",
"}  c #1B2952",
"|  c #113049",
" . c #232C43",
".. c #232B4B",
"X. c #272845",
"o. c #273549",
"O. c #383845",
"+. c #262C55",
"@. c #253254",
"#. c #2A355A",
"$. c #323B58",
"%. c #332E48",
"&. c #182E66",
"*. c #293866",
"=. c #343D66",
"-. c #27366F",
";. c #463B45",
":. c #433F60",
">. c #364656",
",. c #38444C",
"<. c #364269",
"1. c #384778",
"2. c #2F486C",
"3. c #4A4747",
"4. c #5C4C43",
"5. c #554845",
"6. c #5C5443",
"7. c #5B554A",
"8. c #585656",
"9. c #4B5252",
"0. c #644D42",
"q. c #684C44",
"w. c #645344",
"e. c #6A5443",
"r. c #6C5A43",
"t. c #63554B",
"y. c #635B4A",
"u. c #6B5B4B",
"i. c #675848",
"p. c #735B48",
"a. c #6A5C53",
"s. c #655B57",
"d. c #755C54",
"f. c #556356",
"g. c #69624D",
"h. c #74624B",
"j. c #79664E",
"k. c #6D6453",
"l. c #6A6559",
"z. c #746453",
"x. c #756A54",
"c. c #7B6B54",
"v. c #736B5C",
"b. c #7B6C5A",
"n. c #776558",
"m. c #7B735D",
"M. c #79734C",
"N. c #585B66",
"B. c #4B556F",
"V. c #55656E",
"C. c #696A6A",
"Z. c #776B63",
"A. c #7A7567",
"S. c #777976",
"D. c #67746E",
"F. c #605575",
"G. c #816D59",
"H. c #83735C",
"J. c #86765B",
"K. c #847563",
"L. c #8B7B65",
"P. c #857969",
"I. c #927E67",
"U. c #867B74",
"Y. c #8B706C",
"T. c #7A847A",
"R. c #77806B",
"E. c #918D5E",
"W. c #89836C",
"Q. c #94846C",
"!. c #898678",
"~. c #968977",
"^. c #98937C",
"/. c #96946D",
"(. c #A6957C",
"). c #A18D76",
"_. c #B3B678",
"`. c #A8A873",
"'. c #9AA17F",
"]. c #BDC279",
"[. c #3D4F86",
"{. c #4A5987",
"}. c #546B89",
"|. c #687785",
" X c #6B7595",
".X c #6B7DB1",
"XX c #827D81",
"oX c #748694",
"OX c #7D8FB2",
"+X c #878986",
"@X c #958B85",
"#X c #8C948B",
"$X c #9B9688",
"%X c #8B9595",
"&X c #959897",
"*X c #888E95",
"=X c #A79A86",
"-X c #A89D92",
";X c #B19D85",
":X c #9AA597",
">X c #95A392",
",X c #AAA38B",
"<X c #B5A48B",
"1X c #A9A597",
"2X c #B8AB96",
"3X c #B1B693",
"4X c #9BA5A6",
"5X c #A7A9A5",
"6X c #A9B5A9",
"7X c #B8B5A6",
"8X c #B7BAB4",
"9X c #AAB4B3",
"0X c #989DA6",
"qX c #C6B49B",
"wX c #C2AE95",
"eX c #C8BCA7",
"rX c #CABCAC",
"tX c #BCC38E",
"yX c #B7C6B9",
"uX c #B7C3AD",
"iX c #C6CA97",
"pX c #CDD28F",
"aX c #D5C5AC",
"sX c #C8C6B7",
"dX c #D6CAB5",
"fX c #D6D3B9",
"gX c #CED1A8",
"hX c #E1D5B7",
"jX c #EAECB3",
"kX c #D9E1A0",
"lX c #99A9CD",
"zX c #BCC7C5",
"xX c #B1C2D2",
"cX c #C8CBC6",
"vX c #C9D5C9",
"bX c #D4D5CA",
"nX c #CDDAD4",
"mX c #D8DBD7",
"MX c #D3CDC6",
"NX c #E3DDC7",
"BX c #DAE4D8",
"VX c #CEE0D4",
"CX c #E6E7DA",
"ZX c #EBE9C9",
"AX c #DAE7E6",
"SX c #DFEDF6",
"DX c #E7EAE4",
"FX c #EBF4EB",
"GX c #F4F5EA",
"HX c #EAF8F9",
"JX c #F6FCF7",
"KX c #EDEEEA",
/* pixels */
"T.3.4 k >.2.2.}.}.OXOXoXT.R.D.g.C.nXHXAXSXHXHXHXSXHXHXHXHXJXzXf.+XsXfXiXjXjXjXjXkX]._.].pXtX3X>X>X>XR.R.f.R.oXyXAXAXBXBXDXFXGXCX",
"+X,.2 5 o.| | | | V.oXoXoX#XU.C.C.oX9X9XD.B.oXoX|.oX%X%X0XyX9XT.v.uXNXZXZXjXpXpXkX].].pXkXiXtXtXVXvXyX6XyXyXyXVXVXAXFXFXFXDXGXGX",
"T.9.k k o.| | | | | >.T.XXS.P.$XD.N.%XzX4XoX|.V.V.D.D.>.k q 2 @ 6XBXZXkXkX].E.`._._._.pXkXgXuXuXyXVXyXVXVXVXzXVXVXAXFXJXGXGXGXGX",
"f.f.>.f.V.V.oXoXoXoXoX6X&XS.Z.Z.S.N.C.4XSXJXHXAXSXHXSXAXzX:X#X5XfXNXfXfXkX].`.].pX_._.iXfXkXuXtX>X>X6X6XyXyXzXAXSXSXFXFXGXGXGXGX",
":X+XC.9.,.,.>.2.>.B.D.C.C.U.U.a.U.C.C.C.*X4X9X4X9X9XyXsXnXsXcXBXCXCXNXZXZXZXkXkXkXpXiXiXtX3X'.'.>X3X6XuXvXvXvXAXFXFXFXGXGXGXZXCX",
". K T.yXVXlX|.o.4 3 O.N.s.a.Y.U.8.3.S.#XS.S.4X>X%X*XT.oX#X+X+X$X7X6X2X2X2X`./.(._.iXgX3X'.E.T.^.>X>XuXVXFXBXvXvXnXDXJXGXGXGXGXGX",
"^.#X$X5XvXHXHXHXzX4XzXCX1Xs.4.Z.l.9.s.C.8.8.R.D.T.S.S.A.Z.A.A.Z.v.P.^.,X<X<X/.E.M.E.'./.R.W.^.>X:X6XuXVXVXyXyXzXnXBXKXGXGXJXJXJX",
"ZXCXbXMXmXFXHXFXHXAXKXmX@Xt.a.d.7.Z.8.I 8.8.3.8.3.7.Z.A.C.W.@XA.A.v.k.A./.`.(./.M.W././././.=X>XyXyXvXyXuX%X:XVXJXFXDXCXGXGXGXKX",
"vXNXMXvXBXcXzXmXmXmXmXbX-Xa.4.t.t.s.5.Y 7.7.Y Y 8.l.A.A.A.Z.Z.P.U.A.Z.n.x.x.x.M.J.g.M.A.m.v.^.7XsXMXcX6XT.R.6XCXCXCXFXGXJXDXDXGX",
"m.W.A.v.A.!.!.!.5X1XrXMXrXZ.N + F D i S U Y / 7.6.l.W.W.Z.n.Z.U.A.n.y.4.! ! ^ ~ L ~ / ~ y.^.1X>XyX8X8X:XT.T.:XyXFXFXCXDXDXDXbXMX",
"L Q Q p $ i i X r @ i l.U.Z.t.5.a.4.4.5.Y I Q y.l.l.v.m.A.b.v.Z.k.t.Q U T ! W E ^ w.y.^ g.$XrX8X8X8XuX8XuX6XuXVXVXBXBXBXmXCXBXbX",
",X6XsX3X^.$X^.l.V F y.!.@XZ.H N 4.U 5.7.F I 7.x.m.g.6.y.n.n.a.i.t.! Q ! 4.6.0.0.u.t.n.P.v.v.$XsXsXcXVXVXVXzXvXVXBXFXFXCXBXDXDXBX",
"!.$XsXfX,X^.$XW.p 5.U.-X!.s.D N G D 4.s./ / g.M.g.g.6.7.6.6.i.z.! ! w.t.w.4.W F W W n.!.U.Z.A.!.+X+X&X>X>XT.'.>XyXvXVXVXBXJXJXJX",
"R.^.sXfX=X~.$X^.^ K.$X^.a.U G 7.F 3.t.t.7.^ g.f.y.^ / / 6.t.a.a.I Q w.i.t.! G B H 7.a.n.~.7X-Xk.9.8.l.D.f.D.T.>X6XuXuXuXnXFXJXKX",
"m.!.7XsX$XW.~.~.C x.$XU.7.Y 3.7.D 5./ Y Q 7.g.g.6./ L / t.y.t.6.L ~ i.i.w.4.4.4.4.4.4.t.~.dXsX@Xz x l K K K K K f.R.T.>X9XVXHXJX",
"6.P.7X7X,X$X=X^.7.Q.=XP.5.I Q 5.Z.!.v.7.6.7.^ ^ L Y / / I V U ^ Q w.u.u.0.! 0.t.a.5.a.~.1XeXsXMXbXyX8XuXuX'.R.R.f.f.R.D.9.9.f.D.",
"6.A.-XrX-X~.U.@Xm.x.P.W.z.^ g.A.sX~./ / R.m.7.f.Y Y ^ ^ Q L I ^ 6.6.i.y.^ i.k.y.I w.P.,X7XeXrXhXrXsXaXNXZXaXiXfXdXNXGXCX#XS.!.oX",
"E Z.=X-X-XU.Y.(.z.x.W.^.b.^ k.L.fXm.p g.3X/.g.g.y.6.6./ L L I ^ y.g._ / m.x.y.P.y.6.y.P.-XrXdXaXaXqXeXaXaXaX<X(.<XNXsX^.!.#X#X#X",
"H K.~.=X=XU.c.Q.K.x.Y.Y.x.( n.~.W.m.W.7XgX/.^ k.k.x.g.Q Y / ^ y.P.m.L P eX^.^ h.J.m.K.(.wXeX;XY.<X<XqXaXqXwXE.v x.3X2XA.R.#X#X#X",
"! L.^.$X<XW.x.Q.=Xc.u.d.z.p.d.b.6.W.^.^.A.^ / m.x.x.g./ Y ^ ^ ~ aX,Xr.~ hX2Xj.M.' x.~.,X2X<XI.G.).<XaXaXwX(.j.o L r.^.#XA.S.&X&X",
"~ m.L.Q.^.P.g.P.=Xd.q.G.Y.d.q.A x.m.x.^ / g.x.x.b.x.x.' 6.' P * Q.(.(.J.wXQ.j.h.r.m.^.<XwXwX(.I.;XwXrXqX(.(.G.o * * g.W.A.R.1X9X",
"k.U.W.U.~.Z.7.k.XXY.Z.Y.G.d.q.B w.g.x.K.P.m.m.m.b.c.j.x.x.j._ v P M.=XQ.E.h.j.` j.J.).wXaXaXwX).).=X<X<X<XwXJ.& o / v.Z.S.oX&XcX",
"!.+X+XXX!.C.8.s.XXY.G.G.d.d.d.q.C ~ b.W.x.h.m./.m.c.c.H.J.J.j.' h.J.I.h.` r.J.J.) h.Q.qXhXaXwX;XH.L.I.~.(.`.I.` L R.!.Z.D.U.5XAX",
"N.N.N.V.N.9.>.3.S.Z.F.F.Y.XXY.0.L ~ g.J.K.K.L.L.L.G.c.c.H.c.j.G.) h.J.G.` ` ) P J.).wXhXhXqX<X;Xc.H.G.z.I.).;X<X/.m.l.l.7.oXcXDX",
"=.#.#.<.2.2.o.o.k 4 K 9.l.U.U.n.u.z.P.~.Y.h.z.L.<XI.K.L.J.h.j.J.) ` ` P P ` ' M.G.).wXeXwX;X<XwX(.u.~ j.Q.Q.).(.2X<X1XA.3.8XAXnX",
"=.1.1.*.&.| *.2.o.>.,.x , y 0.t.y.u.P.=X=XL.K.~.L.~.(.I.j.p.h.j.` ) ) ` ` ' ` M.I.Q.(.wXwX;X;XwXK.e._ j.c.M.Q.,X2X$X$XW.l.9XmXDX",
"&.-.{.-.-.[.{.[.2.| ; 4 l 0 G s.v.z.P.-X-X~.K.Q.K.Q.I.K.G.I.Q.I.G.` P ~ ) ) p.J.(.).).(.(.;X(.(.c.P A _ p.j.L.~.Q.1XsX8X8XSXnX5X",
"[.-.&.-.-.&.[..XlX Xo.4 O.j O.s.a.a.Z.@X@XP.t.H i.T Z e.L.~.Q.L.G.' ` _ ) ) p.J.).I.I.~.).).).I.z.M * P r.j.J.J.~.2XsXsXcXmX9X0X",
".XlXOX1.] -.2.] | &...: 3 g u S 5.a.K.@X$X@Xa.$ & $ F n.~.~.H.r.e.h.j.r._ ` r.M.h.c.L.I.Q.L.J.b.( V A P A P r.M.P.U.-XcXcXXX|.&X",
"-.-.-.[.[.-.&.&.2.*.@. .d ; < ;.G s.Z.Z.U.=XU.4.X w.~.~.~.I.b.r.r.h.u.~ A P ` r.u.G.I.I.K.c.p.e.T T T P v v ~ h.b.A.=XMXKX5XC.z ",
"[.+.+.+.-.-.-.2.*.} } <.:.%.< , j G 5.D G d.Z.t.I k.P.K.n.u.i.i._ ! T V C P _ ' b.Y.I.L.c.u.( T V v v M M L ~ T z.^.-X-XmXmX0X. ",
":.=.=.=.-.&.*.-.] | &.] X.F.F.< j 3.7.;.G G E E i.T T u.z.( T T p % m _ h.' ' h.b.K.H.n.p.i.^ T * @ % m M P ~ P * z.U.U.8XcX&X. ",
"*.1.=.*.1.=.1.}.XX{.] < X.X.X.;.;.;.;.8.5.i % C W ( q.R n % + # m N C D H ( p.G.G.G.( q.G.) F % + + e r c A J R M A d.$XsXmX1X3.",
"1.1.=.*.*.*.2.{.lX.X=.> : X.X.< u ;.F.s.5.C % * & c c % # X 7 w p p C T W ( p.d.G.q.q.) ) J m # + q $ # c M P ` ` P 0.P.5XbX8Xs.",
"=.*.-.*.#.} #.#.-.=.+.] X.X.< > ; ;.8.8.G C % & o & & & & u y S $ p V T ` q.q.q.q.` q.( R F b # w q e e c M J ) A A ` K.-XMX8XC.",
"-.+.2.1.=.=.2.#.] X.] ] < ] ] X.< %.3.3.U G L M c c c c u b S S r i I ! q.q.` ) ( ( ( q.H M # + @ e i p c c M M P P e.p.U.8XMX5X",
"=.+.*.<.2.<.2.#.+.B.{.+.] X.X.< < < j ;.5.U D C v v m % r r y n D D E W q.q.) R ) ( ( J M % # X @ q e r # * c c J ( i.a.Y.8XMX0X",
"#.} +.#.@.@.#.#.+.B.B.=.+.] > < , , j 8.s.5.N r m v r m N n n n F H T W ) ) ) W ( ( R H m $ # # e t e $ c c c M J ) d.Z.*XcX8XC.",
"#.#.@.@.*.@.@.$.$.+.[ X.] > : %.< < ;.8.s.s.5.I M m c m N B F B F H ;.) J J R ( q.) J N r $ e e i i e r c M M M ( e.a.a.U.8X0X;.",
"[ @.+.@.>...{ o...#.+.[ X.+.] ] > = , , j U W F B c # % r n n b N D H H H J R ( ) R N r # # # e l e i i M M c & M W Z.Y.@X9XXX< ",
"+.+.+...#...{ o.@.o...{ { [ X.X.; , a , , w D 4.F V m % b B D N B B B H T ( 0.0.W V r & # X w e y e r N A A A M * J a.U.5X@X|., ",
"#.@.+.#.o.o.o.o.o.o.o...{ [ ] X.>       X , y D N N b r n B B r Z B B H R ( ( 0.V m # X X + w r e u b m A A A A B J a.U.5X*XC.< ",
"=.+.X.{ ..B.oXOX<.,.: 5 [ 4 [ : ; = ; = , 7 y S r b b b N B B m H F B H W ! W T % & & X # + w e e y y N B A J J R W d.U.5XoX;.1 ",
"=.+.X.] { D.lXxXV.o.5 5 {  .[ 4 : < g l 0 t l D n N N m B V B N V B Z J W W V b & X X # w 7 7 t t e n N H J ) ( q.q.Z.U.-XS.- 1 ",
"+.+.#.+.5 >.}.|.>.k | ,.o.{ : : - 3 8 s 9 t j i S n b b b b m m B A A J H F % & X X @ $ e 7 7 t u r N N V J ) q.q.q.Z.@X&XF.; a ",
"+.+.=.#.: : o.4 2 4 k k 4 : : 4 4 - . . = 0 u t F n n r c * % b B B A A B b # o X & $ e t e u y i N n N B J J R q.d.Y.&XXX8.1 g ",
"-.+.#.+.{ 5  .o.5 4 5 2 f o.o.4 4 - . >   , 7 7 G N N b b c c m B B B n b & & & & * $ t t w t y n n N N J R W R p.Y.Y.@X8.O.a o.",
"+.=.+.+.$.o.o.o.,.5 ; k B.|.>.> > 3 a <       7 5.G F H H N C V M B M b & & # r # # w e e 7 t z n b n V W ( q.0.d.~.U.+X3.6 9 s ",
"] %.+.[ : ..@.o.4 f f X.f f f a 4 - - 1   . X S H F D H U V i N e $ # # X # + w e w q + $ x p p r b m Z T T e.z.z.~.@XZ.S 7 u j ",
"+.{. X{.$...o. .4 3 f f f g s 3 4 1 : ;     , S 3.F D G C p e e $ # # # # 7 w + w 7 $ @ $ * p % % c M L T ! i.c.n.U.@Xa.S u n ;.",
"..B. XF.>... .f d f d  .g s a a 3 : -   . , u S G D N r p $ # # % $ % e u r w w + + * $ $ * % p v v Z R ~ _ p.H.b.P.K.0.S n S S ",
"{ o.$.%.4  . .o.4 d f f f f d 3 : 3 : > ; , z G D N e e $ $ p p m m n r b r r u # e p % p p M v Z P ) _ _ e.h.c.b.Z.a.G u u j j ",
" .f 1 : 4 f  .g 4 d d f d d a 3 ; 3 : ; = j O.S S z e $ e i i i F C m b b u b r r b b b v M M L ~ ) ` ` ` p.h.c.b.d.4.N u w u u ",
"3 3 3 f f f 4 d a d 4 d a d d 3 : 3 3 - 1 h z l z y + & e D I D I C B m b b b b m N m m v v L P ) ` ` ` ` j.h.h.z.i.E S y w w w ",
"1 1 1 s s 1 1 3 a d d a d a 3 : : 3 : - a 8 8 6 7 + X X $ D Y I H F B B M n M m M M V M M A J ) ` ` ` ` ` ` ` _ w.W F S y w 7 u ",
"O.s 2 1 1 = - 3 s a a a 3 3 < a d - a a a ,             q Y 3.E F G H H H F B B c M Z P P P ) ` p.p.G.` ` ` ` P T C n S y u , u ",
"z k 0 8 2 2 - 1 a 8 8 g f - : - - a f f 1 ; ; = 9 6     t 3.5.G E H G F B F V Z H H A A Z ) e.p.p.G.d.j.z.d.0.A D D n u 9 9 9 < ",
"0 0 0 q 9 8 8 1 = ; ; = ; . ; d a 1 ;   ; = = 2 8 6 , = 8 z 3.3.5.5.E G F B V B V F Z T T ) q.p.p.p.d.d.n.q.B b b y y 9 9 9 j 9 ",
"q 6 8 0 0 0 0 0 0 s s 8 = < O.N.N.,.k 2 8 s 1 ; = 8 0 8 6 0 z ;.;.;.S S D D D F T T T W W ( e.e.p.p.a.d.u.4.n u u t u 9 < g X.g ",
"l x 9 7 6 q 0 g 0 0 9 8 2 8 O.9.f.K s 2 1 1 2 ; 1 s k g h h 9 h 9 9 9 u y D F G U W W ! ! 0.t.t.q.q.q.4.q.H S u t j h h < g X.< ",
"z l t 0 0 0 t l 0 0 s 1 2   2 6 O   . O   2 1 3 f f k g g g h h - , , 9 9 l i D I U I T J ;.q.q.t.a.q.;.;.H S u u j %.< X.< X.] ",
"t l i l l j t x 0 0 x x 0 q 6 O o O O O 2 2 k o.f 4 4 f X.g h h h h a 8 9 9 0 t i i i z B S ;.5.q.;.q.5.;.S u , < h < X.X.X.X.] ",
"y z l l z l l x 0 q 0 q 0 0 0 q q q x O 2 2 2 3 4 f o.%...d a g %.X.g h 0 0 0 q q e i y n j u n G ;.;.;.;.j 7 < < g X.X.X.+.X.] ",
";.z l t 0 t t x z z x q q x x x x q O O 2 s k k o.O.B.B.3.X.g %.%.g g a s h t x t l l n u u # u u u u u u j j j h %.%.X.+.+.+.} "
};
