/* XPM */
static char *e0ebc6a4964b4f808dff2bb7e6bd5548fxUVBINIGgW9cnmZ[] = {
/* columns rows colors chars-per-pixel */
"64 64 222 2 ",
"   c #060606",
".  c #060804",
"X  c #080906",
"o  c #070709",
"O  c #08070C",
"+  c #07080B",
"@  c #0B0B0C",
"#  c #0E100C",
"$  c #11120E",
"%  c #0D0C12",
"&  c #0E0D1A",
"*  c #100F14",
"=  c #100E1D",
"-  c #0E1015",
";  c #0E101C",
":  c #131214",
">  c #1A1916",
",  c #15141A",
"<  c #18161C",
"1  c #17191D",
"2  c #1A1A1C",
"3  c #181814",
"4  c #100E0F",
"5  c #22211E",
"6  c #0E0D23",
"7  c #0F0F2A",
"8  c #110F23",
"9  c #110F2D",
"0  c #0F1023",
"q  c #131323",
"w  c #181624",
"e  c #161925",
"r  c #1C1B23",
"t  c #13132C",
"y  c #18162D",
"u  c #16182B",
"i  c #1C1C2B",
"p  c #0F1235",
"a  c #141434",
"s  c #171833",
"d  c #1B1B33",
"f  c #15153B",
"g  c #19163D",
"h  c #16193C",
"j  c #1B1C3B",
"k  c #191634",
"l  c #080B38",
"z  c #201F24",
"x  c #201F2D",
"c  c #211E33",
"v  c #211F3D",
"b  c #1E202D",
"n  c #1E2025",
"m  c #1F213A",
"M  c #1F2132",
"N  c #222225",
"B  c #292825",
"V  c #23232B",
"C  c #29292B",
"Z  c #28272C",
"A  c #242334",
"S  c #23223A",
"D  c #292838",
"F  c #151544",
"G  c #191644",
"H  c #171944",
"J  c #1B1C43",
"K  c #14154B",
"L  c #16194B",
"P  c #1B1C4C",
"I  c #19164B",
"U  c #1C1C54",
"Y  c #1C1E5C",
"T  c #161857",
"R  c #0F114A",
"E  c #201F5A",
"W  c #201F41",
"Q  c #1E2144",
"!  c #1D214D",
"~  c #1E2052",
"^  c #1D215C",
"/  c #222445",
"(  c #23244B",
")  c #2A2A48",
"_  c #222455",
"`  c #2B2A51",
"'  c #22245C",
"]  c #25295C",
"[  c #282956",
"{  c #1C1D64",
"}  c #1A1E6A",
"|  c #1A1F76",
" . c #211F61",
".. c #1E226B",
"X. c #1E2262",
"o. c #1D2273",
"O. c #1F257D",
"+. c #232464",
"@. c #2B2B65",
"#. c #23256B",
"$. c #26296B",
"%. c #2A2C6C",
"&. c #262864",
"*. c #232572",
"=. c #262974",
"-. c #2B2C75",
";. c #22257A",
":. c #252A7A",
">. c #2A2C7B",
",. c #2E3178",
"<. c #30347C",
"1. c #2E306E",
"2. c #1F2585",
"3. c #212684",
"4. c #252A84",
"5. c #2B2D84",
"6. c #2B2E8B",
"7. c #252A8A",
"8. c #2D3183",
"9. c #2D318B",
"0. c #313385",
"q. c #32358C",
"w. c #383A87",
"e. c #292D91",
"r. c #262C99",
"t. c #2E3295",
"y. c #2D329A",
"u. c #333695",
"i. c #32359B",
"p. c #34399C",
"a. c #373A98",
"s. c #2C33A2",
"d. c #3237A3",
"f. c #353BA3",
"g. c #393CA3",
"h. c #353BAC",
"j. c #3A3DAC",
"k. c #3136AA",
"l. c #333BB3",
"z. c #3A3EB3",
"x. c #3338B6",
"c. c #3C42AA",
"v. c #3C43B5",
"b. c #3D44BA",
"n. c #3F48BE",
"m. c #4349BD",
"M. c #4347B7",
"N. c #4243AF",
"B. c #393EC0",
"V. c #3D44C3",
"C. c #454BC4",
"Z. c #464CCA",
"A. c #494ECB",
"S. c #4549C2",
"D. c #4A52CC",
"F. c #4B53C5",
"G. c #454CD3",
"H. c #4C54D3",
"J. c #4D56D9",
"K. c #535AD5",
"L. c #545CDC",
"P. c #555AD7",
"I. c #5B64DC",
"U. c #5963D7",
"Y. c #6871DE",
"T. c #555CE2",
"R. c #5B63E6",
"E. c #5E68E3",
"W. c #5C65E8",
"Q. c #646BEC",
"!. c #626BE4",
"~. c #6E7AEB",
"^. c #6A73E9",
"/. c #727DEA",
"(. c #7078E7",
"). c #656EF1",
"_. c #6A72F3",
"`. c #6A74F2",
"'. c #727CF4",
"]. c #757DFA",
"[. c #7986E9",
"{. c #7C84FC",
"}. c #7D87F6",
"|. c #848DEE",
" X c #8592EE",
".X c #838EFD",
"XX c #878FF8",
"oX c #8995F7",
"OX c #929CFF",
"+X c #939CF7",
"@X c #969FEE",
"#X c #94A2F3",
"$X c #9BA5FD",
"%X c #9EAAFF",
"&X c #95A2FD",
"*X c #96A2EC",
"=X c #A2AEFB",
"-X c #A3ADF4",
";X c #ABB5FE",
":X c #AEBBFD",
">X c #A7B5FB",
",X c #B2BDFF",
"<X c #A0AEED",
"1X c #B6C2FE",
"2X c #BDC9FD",
"3X c #B9C3FC",
"4X c #C2CCFD",
"5X c #CBD4FF",
"6X c #C7D5FE",
"7X c #D3DCFE",
"8X c #D5E2FF",
"9X c #DEEAFF",
"0X c #DBE5FF",
"qX c #E3EBFF",
"wX c #E5EBFF",
"eX c #ECF4FF",
"rX c #E8F4FE",
"tX c #F3F7FF",
"yX c #F4FBFE",
"uX c #FBFCFE",
"iX c #FCFBF3",
"pX c #F6F9EE",
/* pixels */
"  o                 o O O O o O . . . o + + + + + o + . X X # + % % O % + @ X @ @ X 4 X @ $ X # X $ @ $ : X : X : @ : $ $ : # : ",
"          O     X   o o O O O O     o o + % + O % + X . X @ @ # % % % % @ O X @ X * . 4 # . $ X $ . : @ @ : . * 4 3 O : : O 3 @ ",
"            . . .   O X O O O X o o O O + % + O + # + X O @ @ % % % % O @ @ $ @ 4   , O X : X $ @ $ X $ : . 3 @ : X 3 @ @ 3 @ : ",
"          O . .   . O O O O O O + O O O % + % O + + . # @ % % % & & % % % # @ # 4 * @ 4 * X : @ $ @ $ # 4 : @ $ 4 : @ : : $ : $ ",
"o           . . X O O O O O O O O O & O % % O O @ # @ @ % % & = = & & % * % % * 4 * O * * 4 * 4 $ @ $ $ # $ @ $ $ : @ : : % : : ",
"o o     o   . X X X X O O @ % O O O O & O O % @ + X @ @ % % & = = = = % % % % % * O < O O , O * # $ . $ $ X 3 4 : @ 3 # - > @ : ",
"o o       o     O X o O O O O O O O & O % O O @ # X @ @ % & & & = = = = = & % % O , O * * O , 4 $ . 3 @ 4 3 X $ # 3 O : : @ > - ",
"  o       o     o X O o % O @ O & O O % % % O O + # @ @ % & 6 8 8 = = 8 = = & & * 4 4 4 4 , 4 * @ $ @ $ $ X $ X : % : : : : - : ",
"O o o . X O . X   O X O @ @ O % % % O O O & % % O O O % * = 8 8 t q t q 7 0 & & % : % * 4 4 * 4 : @ : - 4 : 4 : @ : % : : % : % ",
"o o . o X o . X X X O o @ + + O % % & & % & % O @ O % O = 8 8 8 t t a t 7 7 8 q , O 3 @ @ > O * @ : X : : X < @ : X > - - > @ : ",
"o o . o O X X X O O O @ @ O % O % % & & & & & & % & & & & 8 q t a a a a a a a q & 1 X : : O < * * O , % % > O * $ > % : : # 2 : ",
"o O o X o X X X X   X O O O O % % & 0 0 7 6 8 8 6 & & & & 8 t t h H L K F g f t q * : $ 4 * % = = , * , , % , * : % : : : : $ : ",
"X o X X   X X X O o o @ O O % O ; ; 0 7 9 9 a t 9 9 6 6 6 7 p f L U T U T P F f t ; , - @ : % = , , = , , = , * , : : : $ : : : ",
"@ o O O X @ O X   o @ + O % O % & 6 7 7 9 p f g a a p 7 7 9 a g L ^ +.X.{ ' I f t u % , , % w = w & i = = w % , % 2 @ , : # > $ ",
"O X O X O X X X X O + + O % O % & 6 9 a f f G G G G g f p p h G Y ..=.=.*.#.E I f 6 e % % w & w 8 x = q q % w , 1 % 2 : : > @ 3 ",
"O O O X X @ O X X @ O % O O O % & 6 a a F G I U U U I K F f H I ..:.8.5.>.>. .P a f 0 q q 6 y y x y y q q w , < % , : : : # : $ ",
"X O O @ O X @ + + + % + % % % % & 6 t p H U Y Y  .=. . .T T K Y | u.i.y.t.8...K Q p 7 a f j h m a k a y u , q , , * , : : 3 : 3 ",
"X O o o @ X + @ # + + % % + + % & 6 t a H ~ +.} ;.5.6.5.} } #.} 2.h.z.z.j.a.:.Y K P l F P G _ H G p j t u i & < * < % , : @ > $ ",
"O O O @ @ + @ o X + - + % @ % % & 6 7 p G E #.;.5.e.p.p.7.| 5.;.7.b.m.z.m.g.4.} ^ R Y U _ @.I ~ H / t s y ; r , 1 % < : : > $ 3 ",
"O X @ X O @ + @ - + + + % % % - & 6 7 p I Y *.>.t.p.j.v.j.7.i.r.s.Z.D.Z.K.v.e.O.o...} -.,.+.^ _ ! J j t u w 8 < * 1 * , 3 $ 3 $ ",
"@ X @ O O O @ @ @ % % % % % % & & q 7 p F Y o.6.d.v.b.Z.K.l.h.b.l.U.R.L.W.V.d.y.3.9.9.u.5.*.#.^ ! h j u t e , q , , : , 3 - 3 : ",
"o @ o @ X @ @ @ @ @ - % % & = & q 0 p p L { O.e.l.V.V.J.W.H.b.D.V.I.`.W._.Z.b.c.y.d.M.e.7.q.*.+.P / a s u & r % , % 2 * , 2 # 3 ",
"@ + @   O @ X @ @ % % & & & & = q 7 p L T ..O.r.v.V.J.T.).`.L.E.I.~.{.'.].K.D.m.b.F.z.h.y.6.0.^ ! h m t 0 i % 1 * 2 % 1 3 - > : ",
"+ @ X @ X X @ @ % % % % & = = 8 9 a F ! ^ o.2.r.x.V.W.Q.`..X`.[.[.[.OX{..XY.I.D.U.Z.V.z.j.u.:...P J f u e ; 1 - < : 1 : : 3 : 3 ",
"@ @ o O X @ # 4 X % * , = 8 8 8 a f F T } :.r.h.l.V.T.`.{.OX&XoX#X#X$X$X&X}.[.Y.U.K.A.S.j.u.:.X._ J j s u e = 1 * , : > 3 : 3 : ",
"@ @ @ @ @ X X X % % % & = 8 t k f K K T *.7.d.b.D.U.R.[.OX%X;X>X:X:X:X1X>X&X[.[.^.R.P.Z.k.6.:.%.P ! a s u & 2 : 3 * r : , r - 3 ",
"X @ X @ X # @ @ % % & & 8 w y g P E  .*.4.e.s.z.D.Y.~.}.#X;X6X6X5X5X5X5X2X1X#X}.|.Q.P.A.N.p.>.^ ! f j t q w : 2 : r : 2 2 - 5 : ",
"O X @ @ @ X @ @ @ % & & 8 9 9 a I  .#.5.u.h.M.D.D.^.}.&X>X2X8X9XqXwXqX9X8X2X1X#X|.^.I.A.h.e.*.Y P J h s i e e > , : > : : 2 : 3 ",
"X @ @ # X @ @ @ % % & & 6 7 9 p R T } ;.t.j.A.L.^.[.XX=X4X7XeXeXtXyXyXeXrX8X1X<X|.(.L.A.k.9.:.+.~ Q f d u e e , > : > , 3 2 , 3 ",
"X @ @ @ # X @ @ % % & & 6 7 k g T  .o.4.y.x.Z.L.{.}.=X,X7XwXyXuXuXuXuXyXrX9X6X1X+X(.L.A.M.j.8.+._ H Q s e i % > , 2 - > 2 : n , ",
"@ @ X @ X X $ @ - % & & 6 9 k G T *.5.u.N.S.P.Q.{.OX>X5X0XeXuXpXpXiXuXyXrXrX6X1X+X}.^.R.S.g.0.-._ ( a s i ; r : 3 - 2 , , 2 - > ",
"@ @ X @ X @ @ @ + % & 6 7 t a f E  .>.u.j.S.T.).{.OX;X4XwXtXuXpXuXuXuXyXyXrX8X2X;XXX^.L.C.j.q.*.] ! J j u i 1 r : 3 , 2 > , 1 : ",
"X X @ @ # X @ @ % - ; 0 7 9 f f L ^ o.3.s.B.V.T.Q.{.$X2X7XwXuXuXuXuXyXuXyXtXqX2X-XXX(.P.M.c.u.8.+.' P W j y r , r , < < < w , 2 ",
"@ # @ @ @ @ @ @ % - 6 0 7 t k H ! ^ =.7.x.B.G.T.'.XX+X-X7XeXyXuXuXuXuXuXuXtXwX4X-X|.Y.U.m.v.p.4.-.+.&.P h S q i * z < < r < z % ",
"@ 4 @ @ @ # % % % ; 0 0 t a g h ! ^ =.5.s.x.G.T._.Y. X,X4XwXuXyXuXuXuXuXyXeXqX4X;XOX/.U.F.v.d.t.-.1.E _ / s S w V * w , < w * x ",
"4 @ @ # @ @ # @ - ; 0 0 t s j h ~ ^ #.5.y.l.b.D.A.Q.|.@X,XwXyXtXyXyXtXyXtXwX7X4X;XOX.X`.U.m.j.i.>.#.&.E ( / d x w x w r r 2 z , ",
"4 4 O O @ % - - - ; 0 0 t t f h P _ #.*.5.t.j.n.D.P.(.+X,X7XwXqXrXeXrXrXqX7X2X>X%X.X].`.R.P.m.f.0.-.%.E E / d d w x r z r r z < ",
"@ 4 @ 4 @ $ % - ; ; 0 0 9 t k f L U Y #.:.9.y.h.M.S.!.+X;X,X4X4X7X9X0X7X7X6X:X*XOX}._.R.P.H.S.N.u.w. . .~ g / d D 8 r q < < * N ",
"O O @ 4 - @ % % % , ; e q t y j G P U Y +.*.4.r.r.P.^.(.OX=X*X<X3X6X2X3X4X,X-X X(.Q.Q.R.P.S.M.f.a.>.<. .~ ( k c 8 A w r r < B 4 ",
"O % @ @ @ % @ % - ; ; 0 8 t k j g I J P U { } 2.F.K.L._..X[.[.&X%X:X-X*X=X>X%X X'.Q.J.G.S.M.N.p.6.<.$.@.[ P W f S y z w r r : 5 ",
"* % @ * @ % % % % = & & q 8 9 9 k f G g F ^ =.u.i.S.J._.).T././. X&X&X X|.OXOX.X).Q.G.V.v.f.p.9.0.:.1.&._ ( J S y c w x r < 2 : ",
"% % @ * $ @ % * % % & , 8 q q q 9 g 9 g J F %.>.i.x.J.L.T.!.L.!.}.{.{.'.'.{.{.].).J.H.x.s.c.6.8.=.,.Y ' _ g / s c 8 A q < z * 2 ",
"@ * @ @ @ * @ : % % * = = , 8 8 y 8 y 9 h _ ^ :.q.M.b.G.G.G.J.K.).Q.).Q.Q.Q._.].W.R.V.v.p.4.0.-.,.+.@._ ( ` j / k D 8 c V - B : ",
"4 @ @ * : @ : @ % : % = , = = q 8 q 6 9 j Q ] ..q.i.z.k.V.A.B.J.R.R.T.L.J.T.W.Q.W.H.C.j.t.8.=.1.&.&._ _ ( J S v A y D w e Z : r ",
"@ @ @ $ @ $ @ : : % : * : = , ; ; 0 & s j Q ] $.-.5.u.r.h.z.x.A.Z.D.V.H.V.D.H.U.U.Z.m.a.q.,.X.&._ [ P ( / v v c c A y b i r n 2 ",
"$ $ @ @ # @ $ @ @ * * : : , * , ; & u t a ( P @.+.>.| 6.p.y.h.v.v.b.v.c.v.n.C.Z.D.F.c.g.9...&.^ [ P ` v v D c c c A i i i r n 1 ",
"@ @ @ $ @ 4 @ : * $ * * * , : : - e & s j g [ ~ ' Y -.;.5.u.e.g.c.p.p.c.f.f.v.v.m.v.M.a.<.<.^ ^ J ( k v v y c y c i b i e b e n ",
"@ $ $ @ $ % # @ $ 4 : * : * - - , ; w u j J H P K _ Y -.;.;.u.6.q.9.7.9.9.e.y.c.c.c.a.a.8.$.&.L W j v d c c x x i x i b b n n 1 ",
"@ $ @ # : @ - @ : @ : - # : % : & 8 8 y y t s f h G _ +.#.-.:.0.>.,.=.=.=.:.8.9.p.t.g.u.8.1.^ ! j v y d M e b e D , D r w Z , V ",
"$ O : @ @ : o : @ , @ : : @ > % = & x w w x q t k / K _ +. .>.-.,.X.%.^ ^ 1.$.8.9.a.8.q.<.X.] Q v t A i r b 1 e ; A e r n , V + ",
"@ , O : : o 3 @ : O 3 % % > % , % i = i i = u 6 s a ( P U @. .$.X.%.~ ^ ^ ~ 1.$.,.;.q.,.,.1.! ! s A w b b e V 1 V w e b r 3 2 V ",
": @ : @ - : % - - : @ : : % : % , * w , = < = q u j j ( _ E &.' ' ~ ~ Q H ! ~ &.$.-.-.,.1.^ [ ( m d M u r b e n e r r r r 2 n 3 ",
": @ : @ - : - : % : @ : : % : : , * , * : , = < w d d Q ! ! _ U _ Q ! h h Q H ! &.@.@.%.@._ [ / m d M r i n r n 1 n r r r r 5 3 ",
"@ , o : : O 3 @ : @ > % - > @ , * 2 % , , @ r = r 0 m h j ( h ! J / a M M t m Q _ U @.' [ ] J / M S e b b 1 V r Z r e r n 1 > C ",
": o , @ @ 3 o : % 3 @ : : @ 3 - , @ 2 : : < * < e b q M m s / j J u m e e M t S j ` P [ [ P ` v m e M w 2 V 3 n - V 1 r r , C @ ",
"@ : @ : : @ : % - % : : : : - : % , : , : : < * e q i u d m j j s M e u e 1 i y v W ` ( ( ` W ) d b e r r 1 r 3 Z : Z 3 2 B : B ",
": # : : $ : @ $ @ : : : : - : @ < * , , , , * < & V q M d t v t S q i 1 , r 1 A 6 ) f ) ` g ` t ) = D r r V @ Z + Z , z N : B X ",
"@ : X : : @ 3 # : @ 3 : $ > @ : * < 4 , < 4 2 = e w x i i S i d & A w r r , Z % D t S j v ) v ` q Z e b n , N % Z , N 2 2 5 : B ",
": O 3 @ @ > @ : # 3 @ : : @ > $ > 4 < * * < * w , i , y i q c q A q < r r , , V = c c d j S ) y D i r r 2 2 > B : N z > 2 5 5 $ ",
"$ : @ $ : - : : : # : : : 3 : : : < 4 > < * < < w , i w w x w i w r r w 2 r 2 e i i d A c c c S u x V r e N r 3 n e 2 N N 2 > 5 ",
"$ : @ : : # : : : : : : : 3 - : $ > $ 3 < * < < w , i w w x w i w w r < 2 r r 2 r i i i x x c A i x x z < z z < z < < z 5 2 > 5 ",
": X 3 $ @ > @ : # 3 @ 3 3 @ > $ > X > 3 : < 4 < : z = r r , x , z , , 2 r , = V ; b i r w x Z q D u i z z < < B , z z z 2 5 5 $ ",
"@ 3 O : : @ > $ : @ 3 : : > @ : $ > X 3 > 4 2 < < < z r r N < 2 o V , z z : B % V , r e r N 2 D 8 c w z z < z * Z > z < 2 5 3 B ",
": # : : $ : % : # : - 3 : : : # 3 $ > 3 : > : < * 2 * z r * z * N * 2 , < r = V % Z : N V , C * D 8 A r w B 4 Z O Z > z z : B X "
};
